<svg width="100" height="100" viewBox="0 0 100 100" fill="none" xmlns="http://www.w3.org/2000/svg">
<path fill-rule="evenodd" clip-rule="evenodd" d="M50 100C22.3858 100 0 77.6142 0 50C0 22.3858 22.3858 0 50 0C77.6142 0 100 22.3858 100 50C100 77.6142 77.6142 100 50 100ZM50 6.25C25.8375 6.25 6.25 25.8375 6.25 50C6.25 74.1625 25.8375 93.75 50 93.75C74.1625 93.75 93.75 74.1625 93.75 50C93.75 25.8375 74.1625 6.25 50 6.25ZM31.25 53.1459C27.6887 53.1459 24.3643 51.3618 22.3958 48.3941C21.4418 46.9558 21.8343 45.0165 23.2726 44.0625C24.7108 43.1085 26.6501 43.501 27.6041 44.9393L27.7367 45.1281C28.5591 46.2365 29.8608 46.8959 31.25 46.8959C32.7164 46.8959 34.0852 46.1612 34.8958 44.9393L35.0058 44.7838C35.9928 43.4738 37.8424 43.1438 39.2274 44.0625C40.6656 45.0165 41.0582 46.9558 40.1041 48.3941C38.1356 51.3618 34.8112 53.1459 31.25 53.1459ZM59.8958 48.3941C61.8643 51.3618 65.1887 53.1459 68.75 53.1459C72.3112 53.1459 75.6356 51.3618 77.6041 48.3941C78.5582 46.9558 78.1656 45.0165 76.7274 44.0625C75.3424 43.1438 73.4928 43.4738 72.5058 44.7838L72.3958 44.9393C71.5852 46.1612 70.2164 46.8959 68.75 46.8959C67.3608 46.8959 66.0591 46.2365 65.2367 45.1281L65.1041 44.9393C64.1501 43.501 62.2108 43.1085 60.7726 44.0625C59.3343 45.0165 58.9418 46.9558 59.8958 48.3941ZM62.5 75C62.5 76.7259 61.1009 78.125 59.375 78.125H40.625C38.8991 78.125 37.5 76.7259 37.5 75C37.5 73.2741 38.8991 71.875 40.625 71.875H59.375C61.1009 71.875 62.5 73.2741 62.5 75ZM61.3394 31.0265L76.9644 37.2765C78.5668 37.9174 80.3855 37.138 81.0265 35.5356C81.6674 33.9331 80.888 32.1145 79.2856 31.4735L63.6606 25.2235C62.0581 24.5825 60.2395 25.3619 59.5985 26.9644C58.9575 28.5668 59.7369 30.3855 61.3394 31.0265ZM20.7144 31.4735L36.3394 25.2235C37.9418 24.5825 39.7605 25.3619 40.4015 26.9644C41.0424 28.5668 40.263 30.3855 38.6606 31.0265L23.0356 37.2765C21.4331 37.9174 19.6145 37.138 18.9735 35.5356C18.3325 33.9331 19.1119 32.1145 20.7144 31.4735Z" fill="black"/>
</svg>
