<svg width="8" height="8" viewBox="0 0 8 8" fill="none" xmlns="http://www.w3.org/2000/svg">
<path fill-rule="evenodd" clip-rule="evenodd" d="M6.95312 1.04687C7.18612 1.27987 7.18612 1.65763 6.95312 1.89062L1.89062 6.95313C1.65763 7.18612 1.27987 7.18612 1.04687 6.95313C0.81388 6.72013 0.81388 6.34237 1.04687 6.10938L6.10937 1.04688C6.34237 0.81388 6.72013 0.81388 6.95312 1.04687Z" fill="currentColor"/>
<path fill-rule="evenodd" clip-rule="evenodd" d="M1.04688 1.04687C1.27987 0.81388 1.65763 0.81388 1.89063 1.04688L6.95313 6.10938C7.18612 6.34237 7.18612 6.72013 6.95313 6.95313C6.72013 7.18612 6.34237 7.18612 6.10938 6.95313L1.04688 1.89062C0.81388 1.65763 0.81388 1.27987 1.04688 1.04687Z" fill="currentColor"/>
</svg>
