<svg width="26" height="26" viewBox="0 0 26 26" fill="none" xmlns="http://www.w3.org/2000/svg">
<path d="M18.6948 12.1781L20.3 16.4177H23.425C23.5826 16.4115 23.7382 16.4542 23.8707 16.5398C24.0031 16.6254 24.1059 16.7499 24.1649 16.8961C24.224 17.0424 24.2364 17.2033 24.2006 17.3569C24.1647 17.5104 24.0823 17.6492 23.9646 17.7542L21.2562 19.6448L22.7583 23.0969C22.8239 23.2549 22.8384 23.4296 22.7996 23.5963C22.7608 23.7629 22.6708 23.9133 22.5422 24.0262C22.4135 24.139 22.2528 24.2088 22.0825 24.2256C21.9122 24.2424 21.7409 24.2054 21.5927 24.1198L17.9583 22.0771L14.326 24.1198C14.1778 24.2054 14.0065 24.2424 13.8362 24.2256C13.6659 24.2088 13.5052 24.139 13.3765 24.0262C13.2479 23.9133 13.1579 23.7629 13.1191 23.5963C13.0804 23.4296 13.0948 23.2549 13.1604 23.0969L14.6635 19.6448L11.9552 17.7542C11.8371 17.6496 11.7543 17.5111 11.718 17.3577C11.6817 17.2042 11.6937 17.0433 11.7525 16.8969C11.8112 16.7506 11.9138 16.626 12.0461 16.5402C12.1784 16.4544 12.3341 16.4116 12.4916 16.4177H15.6166L17.225 12.1781C17.2961 12.0451 17.4021 11.9338 17.5315 11.8562C17.6609 11.7787 17.809 11.7377 17.9599 11.7377C18.1108 11.7377 18.2588 11.7787 18.3883 11.8562C18.5177 11.9338 18.6236 12.0451 18.6948 12.1781Z" stroke="#E5E5E5" stroke-width="1.5625" stroke-linecap="round" stroke-linejoin="round"/>
<path d="M5.46875 10.949H12.5" stroke="#E5E5E5" stroke-width="1.5625" stroke-linecap="round" stroke-linejoin="round"/>
<path d="M5.46875 14.8552H7.8125" stroke="#E5E5E5" stroke-width="1.5625" stroke-linecap="round" stroke-linejoin="round"/>
<path d="M5.46875 18.7615H7.8125" stroke="#E5E5E5" stroke-width="1.5625" stroke-linecap="round" stroke-linejoin="round"/>
<path d="M9.375 24.2302H2.34375C1.92935 24.2302 1.53192 24.0656 1.2389 23.7726C0.94587 23.4795 0.78125 23.0821 0.78125 22.6677V6.26147C0.78125 5.84707 0.94587 5.44964 1.2389 5.15662C1.53192 4.86359 1.92935 4.69897 2.34375 4.69897H6.25C6.25 3.66297 6.66155 2.6694 7.39411 1.93684C8.12668 1.20427 9.12025 0.792725 10.1562 0.792725C11.1923 0.792725 12.1858 1.20427 12.9184 1.93684C13.6509 2.6694 14.0625 3.66297 14.0625 4.69897H17.9687C18.3832 4.69897 18.7806 4.86359 19.0736 5.15662C19.3666 5.44964 19.5312 5.84707 19.5312 6.26147V8.60522" stroke="#E5E5E5" stroke-width="1.5625" stroke-linecap="round" stroke-linejoin="round"/>
<path d="M10.1563 3.91772C10.2335 3.91772 10.309 3.94063 10.3733 3.98356C10.4375 4.02648 10.4876 4.08749 10.5171 4.15886C10.5467 4.23024 10.5544 4.30878 10.5394 4.38456C10.5243 4.46033 10.4871 4.52993 10.4325 4.58456C10.3778 4.63919 10.3082 4.6764 10.2325 4.69147C10.1567 4.70654 10.0781 4.6988 10.0068 4.66924C9.93539 4.63967 9.87438 4.58961 9.83146 4.52537C9.78853 4.46113 9.76562 4.38561 9.76562 4.30835C9.76562 4.20475 9.80678 4.10539 9.88004 4.03214C9.95329 3.95888 10.0526 3.91772 10.1563 3.91772" stroke="#E5E5E5" stroke-width="1.5625" stroke-linecap="round" stroke-linejoin="round"/>
</svg>
