<svg width="100" height="100" viewBox="0 0 100 100" fill="none" xmlns="http://www.w3.org/2000/svg">
<path fill-rule="evenodd" clip-rule="evenodd" d="M50 100C22.3858 100 0 77.6142 0 50C0 22.3858 22.3858 0 50 0C77.6142 0 100 22.3858 100 50C100 77.6142 77.6142 100 50 100ZM50 6.25C25.8375 6.25 6.25 25.8375 6.25 50C6.25 74.1625 25.8375 93.75 50 93.75C74.1625 93.75 93.75 74.1625 93.75 50C93.75 25.8375 74.1625 6.25 50 6.25ZM50 81.25C63.8071 81.25 75 70.0571 75 56.25C75 54.5241 76.3991 53.125 78.125 53.125C79.8509 53.125 81.25 54.5241 81.25 56.25C81.25 73.5089 67.2589 87.5 50 87.5C32.7411 87.5 18.75 73.5089 18.75 56.25C18.75 54.5241 20.1491 53.125 21.875 53.125C23.6009 53.125 25 54.5241 25 56.25C25 70.0571 36.1929 81.25 50 81.25ZM74.1738 33.1627L74.1076 33.334C73.2252 35.8319 70.8638 37.5021 68.2146 37.5021C65.6508 37.5021 63.3566 35.9379 62.4115 33.5732L62.3215 33.334C61.7466 31.7067 59.9614 30.8536 58.334 31.4285C56.7067 32.0034 55.8536 33.7886 56.4285 35.416C58.1934 40.4118 62.9162 43.7521 68.2146 43.7521C73.513 43.7521 78.2358 40.4118 80.0007 35.416C80.5756 33.7886 79.7225 32.0034 78.0951 31.4285C76.5259 30.8741 74.8099 31.6476 74.1738 33.1627ZM37.6785 33.334L37.7447 33.1627C38.3807 31.6476 40.0968 30.8741 41.666 31.4285C43.2933 32.0034 44.1465 33.7886 43.5716 35.416C41.8066 40.4118 37.0838 43.7521 31.7854 43.7521C26.4871 43.7521 21.7643 40.4118 19.9993 35.416C19.4244 33.7886 20.2776 32.0034 21.9049 31.4285C23.5322 30.8536 25.3175 31.7067 25.8924 33.334L25.9824 33.5732C26.9275 35.9379 29.2217 37.5021 31.7854 37.5021C34.4346 37.5021 36.796 35.8319 37.6785 33.334Z" fill="currentColor"/>
</svg>
