<svg width="32" height="32" viewBox="0 0 32 32" fill="none" xmlns="http://www.w3.org/2000/svg">
<path fill-rule="evenodd" clip-rule="evenodd" d="M0 16C0 24.8366 7.16344 32 16 32C24.8366 32 32 24.8366 32 16C32 7.16344 24.8366 0 16 0C7.16344 0 0 7.16344 0 16ZM2 16C2 8.26801 8.26801 2 16 2C23.732 2 30 8.26801 30 16C30 23.732 23.732 30 16 30C8.26801 30 2 23.732 2 16ZM23.7356 10.6121L23.7144 10.6669C23.4321 11.4662 22.6764 12.0007 21.8287 12.0007C21.0083 12.0007 20.2741 11.5001 19.9717 10.7434L19.9429 10.6669C19.7589 10.1461 19.1876 9.87314 18.6669 10.0571C18.1461 10.2411 17.8731 10.8124 18.0571 11.3331C18.6219 12.9318 20.1332 14.0007 21.8287 14.0007C23.5242 14.0007 25.0354 12.9318 25.6002 11.3331C25.7842 10.8124 25.5112 10.2411 24.9904 10.0571C24.4883 9.87971 23.9392 10.1272 23.7356 10.6121ZM12.0571 10.6669L12.0783 10.6121C12.2818 10.1272 12.831 9.87971 13.3331 10.0571C13.8539 10.2411 14.1269 10.8124 13.9429 11.3331C13.3781 12.9318 11.8668 14.0007 10.1713 14.0007C8.47586 14.0007 6.96456 12.9318 6.39979 11.3331C6.21582 10.8124 6.48882 10.2411 7.00957 10.0571C7.53031 9.87314 8.10159 10.1461 8.28556 10.6669L8.31436 10.7434C8.6168 11.5001 9.35095 12.0007 10.1713 12.0007C11.0191 12.0007 11.7747 11.4662 12.0571 10.6669Z" fill="#616300"/>
<path d="M20.2161 20.5657C17.6846 22.2483 14.4183 22.351 11.7862 20.8307C11.3079 20.5544 10.6963 20.7182 10.4201 21.1964C10.1439 21.6747 10.3076 22.2863 10.7859 22.5625C14.076 24.4629 18.1589 24.3346 21.3232 22.2313C21.7832 21.9255 21.9082 21.3048 21.6024 20.8449C21.2967 20.3849 20.676 20.2599 20.2161 20.5657Z" fill="#616300"/>
</svg>
