<svg width="21" height="25" viewBox="0 0 21 25" fill="none" xmlns="http://www.w3.org/2000/svg">
<path d="M10.5 13.2854V10.1604" stroke="#1FC6D5" stroke-width="1.5625" stroke-linecap="round" stroke-linejoin="round"/>
<path d="M10.5 7.88013C10.6036 7.88013 10.703 7.83897 10.7762 7.76572C10.8495 7.69246 10.8906 7.5931 10.8906 7.4895" stroke="#1FC6D5" stroke-width="1.5625" stroke-linecap="round" stroke-linejoin="round"/>
<path d="M10.1094 7.4895C10.1094 7.5931 10.1505 7.69246 10.2238 7.76572C10.297 7.83897 10.3964 7.88013 10.5 7.88013" stroke="#1FC6D5" stroke-width="1.5625" stroke-linecap="round" stroke-linejoin="round"/>
<path d="M10.5 7.09888C10.4487 7.09874 10.3978 7.10875 10.3504 7.12833C10.3029 7.14792 10.2598 7.17668 10.2235 7.21298C10.1872 7.24928 10.1584 7.2924 10.1388 7.33985C10.1192 7.38731 10.1092 7.43817 10.1094 7.4895" stroke="#1FC6D5" stroke-width="1.5625" stroke-linecap="round" stroke-linejoin="round"/>
<path d="M10.8906 7.4895C10.8908 7.43817 10.8808 7.38731 10.8612 7.33985C10.8416 7.2924 10.8128 7.24928 10.7765 7.21298C10.7402 7.17668 10.6971 7.14792 10.6496 7.12833C10.6022 7.10875 10.5513 7.09874 10.5 7.09888" stroke="#1FC6D5" stroke-width="1.5625" stroke-linecap="round" stroke-linejoin="round"/>
<path d="M19.875 10.1604C19.875 18.3896 12.6542 23.0052 10.8865 24.0146C10.7686 24.0819 10.6352 24.1173 10.4995 24.1173C10.3637 24.1173 10.2304 24.0819 10.1125 24.0146C8.34479 23.0042 1.125 18.3875 1.125 10.1604C1.125 7.674 2.11272 5.28943 3.87087 3.53127C5.62903 1.77312 8.0136 0.7854 10.5 0.7854C12.9864 0.7854 15.371 1.77312 17.1291 3.53127C18.8873 5.28943 19.875 7.674 19.875 10.1604Z" stroke="#1FC6D5" stroke-width="1.5625" stroke-linecap="round" stroke-linejoin="round"/>
</svg>
