<svg width="32" height="32" viewBox="0 0 32 32" fill="none" xmlns="http://www.w3.org/2000/svg">
<path fill-rule="evenodd" clip-rule="evenodd" d="M16 32C7.16344 32 0 24.8366 0 16C0 7.16344 7.16344 0 16 0C24.8366 0 32 7.16344 32 16C32 24.8366 24.8366 32 16 32ZM16 2C8.26801 2 2 8.26801 2 16C2 23.732 8.26801 30 16 30C23.732 30 30 23.732 30 16C30 8.26801 23.732 2 16 2ZM8.5 14C8.5 14.8284 9.17157 15.5 10 15.5C10.8284 15.5 11.5 14.8284 11.5 14C11.5 13.1946 10.8652 12.5374 10.0687 12.5015L9.99967 12.5C9.17139 12.5002 8.5 13.1717 8.5 14ZM19.5 14C19.5 14.8284 20.1716 15.5 21 15.5C21.8284 15.5 22.5 14.8284 22.5 14C22.5 13.1946 21.8652 12.5374 21.0687 12.5015L20.9997 12.5C20.1714 12.5002 19.5 13.1717 19.5 14Z" fill="#8C4C10"/>
<path d="M12.84 23.1201H18.84C19.3923 23.1201 19.84 22.6724 19.84 22.1201C19.84 21.5678 19.3923 21.1201 18.84 21.1201H12.84C12.2877 21.1201 11.84 21.5678 11.84 22.1201C11.84 22.6724 12.2877 23.1201 12.84 23.1201Z" fill="#8C4C10"/>
</svg>
