<svg width="100" height="100" viewBox="0 0 100 100" fill="none" xmlns="http://www.w3.org/2000/svg">
<path fill-rule="evenodd" clip-rule="evenodd" d="M50 100C22.3858 100 0 77.6142 0 50C0 22.3858 22.3858 0 50 0C77.6142 0 100 22.3858 100 50C100 77.6142 77.6142 100 50 100ZM50 6.25C25.8375 6.25 6.25 25.8375 6.25 50C6.25 74.1625 25.8375 93.75 50 93.75C74.1625 93.75 93.75 74.1625 93.75 50C93.75 25.8375 74.1625 6.25 50 6.25ZM26.5625 43.75C26.5625 46.3388 28.6612 48.4375 31.25 48.4375C33.8388 48.4375 35.9375 46.3388 35.9375 43.75C35.9375 41.2331 33.9538 39.1795 31.4646 39.0673L31.249 39.0625C28.6606 39.0631 26.5625 41.1615 26.5625 43.75ZM65.625 48.4375C63.0362 48.4375 60.9375 46.3388 60.9375 43.75C60.9375 41.1615 63.0356 39.0631 65.624 39.0625L65.8396 39.0673C68.3288 39.1795 70.3125 41.2331 70.3125 43.75C70.3125 46.3388 68.2138 48.4375 65.625 48.4375ZM75.1994 65.625C65.7005 65.6232 57.0212 71.0047 52.7994 79.5139C52.0324 81.06 50.1572 81.6915 48.6111 80.9244C47.0651 80.1573 46.4336 78.2822 47.2006 76.7361C52.4778 66.0996 63.327 59.3727 75.2006 59.375C76.9265 59.3753 78.3254 60.7747 78.325 62.5006C78.3247 64.2265 76.9253 65.6253 75.1994 65.625Z" fill="black"/>
</svg>
