<svg width="22" height="22" viewBox="0 0 22 22" fill="none" xmlns="http://www.w3.org/2000/svg">
<path d="M7.78435 10.3263L6.81268 14.2157L10.7012 13.2431L16.5348 7.40945L13.618 4.49261L7.78435 10.3263Z" stroke="#58C8D2" stroke-width="1.375" stroke-linecap="round" stroke-linejoin="round"/>
<path d="M19.9384 4.00681L20.9101 4.97847C21.0379 5.10616 21.1392 5.25778 21.2084 5.42466C21.2775 5.59154 21.3131 5.77041 21.3131 5.95106C21.3131 6.1317 21.2775 6.31057 21.2084 6.47745C21.1392 6.64433 21.0379 6.79595 20.9101 6.92364L17.875 9.95781" stroke="#58C8D2" stroke-width="1.375" stroke-linecap="round" stroke-linejoin="round"/>
<path d="M16.5348 7.40946L19.9384 4.00679C20.1962 3.74894 20.341 3.39927 20.341 3.03467C20.341 2.67007 20.1962 2.32039 19.9384 2.06254L18.9658 1.08996C18.708 0.832187 18.3583 0.687378 17.9937 0.687378C17.6291 0.687378 17.2794 0.832187 17.0216 1.08996L13.618 4.49171" stroke="#58C8D2" stroke-width="1.375" stroke-linecap="round" stroke-linejoin="round"/>
<path d="M17.1875 13.0625V19.9375C17.1875 20.3022 17.0426 20.6519 16.7848 20.9098C16.5269 21.1677 16.1772 21.3125 15.8125 21.3125H2.0625C1.69783 21.3125 1.34809 21.1677 1.09023 20.9098C0.832366 20.6519 0.6875 20.3022 0.6875 19.9375V6.18753C0.6875 5.82286 0.832366 5.47312 1.09023 5.21526C1.34809 4.9574 1.69783 4.81253 2.0625 4.81253H8.9375" stroke="#58C8D2" stroke-width="1.375" stroke-linecap="round" stroke-linejoin="round"/>
</svg>
