<svg width="19" height="19" viewBox="0 0 19 19" fill="none" xmlns="http://www.w3.org/2000/svg">
<path d="M6.53125 7.125C6.85917 7.125 7.125 6.85917 7.125 6.53125C7.125 6.03937 6.72625 5.64062 6.23438 5.64062C5.90646 5.64062 5.64062 5.90646 5.64062 6.23438C5.64062 6.47517 5.78397 6.68249 5.98997 6.77565C6.08314 6.98166 6.29045 7.125 6.53125 7.125Z" fill="currentColor"/>
<path d="M6.23438 5.64062C5.7425 5.64062 5.34375 6.03937 5.34375 6.53125C5.34375 7.02313 5.7425 7.42188 6.23438 7.42188C6.72625 7.42188 7.125 7.02313 7.125 6.53125C7.125 6.29045 6.98166 6.08314 6.77565 5.98997C6.68249 5.78397 6.47517 5.64062 6.23438 5.64062Z" fill="currentColor"/>
<path d="M9.79688 5.64062C9.305 5.64062 8.90625 6.03937 8.90625 6.53125C8.90625 7.02313 9.305 7.42188 9.79688 7.42188C10.2888 7.42188 10.6875 7.02313 10.6875 6.53125C10.6875 6.03937 10.2888 5.64062 9.79688 5.64062C9.46896 5.64062 9.20312 5.90646 9.20312 6.23438C9.20312 6.56229 9.46896 6.82812 9.79688 6.82812C9.63292 6.82812 9.5 6.69521 9.5 6.53125C9.5 6.36729 9.63292 6.23438 9.79688 6.23438C9.96083 6.23438 10.0938 6.36729 10.0938 6.53125C10.0938 6.69521 9.96083 6.82812 9.79688 6.82812C10.1248 6.82812 10.3906 6.56229 10.3906 6.23438C10.3906 5.90646 10.1248 5.64062 9.79688 5.64062Z" fill="currentColor"/>
<path d="M2.96875 16.3281C2.96875 15.1804 3.89916 14.25 5.04688 14.25C6.19459 14.25 7.125 15.1804 7.125 16.3281C7.125 17.4758 6.19459 18.4062 5.04688 18.4062C3.89916 18.4062 2.96875 17.4758 2.96875 16.3281ZM5.04688 17.2188C5.53875 17.2188 5.9375 16.82 5.9375 16.3281C5.9375 15.8362 5.53875 15.4375 5.04688 15.4375C4.555 15.4375 4.15625 15.8362 4.15625 16.3281C4.15625 16.82 4.555 17.2188 5.04688 17.2188Z" fill="currentColor"/>
<path d="M0.890625 17.2188C0.398746 17.2188 0 17.6175 0 18.1094C0 18.6013 0.398746 19 0.890625 19C1.3825 19 1.78125 18.6013 1.78125 18.1094C1.78125 17.6175 1.3825 17.2188 0.890625 17.2188C0.562706 17.2188 0.296875 17.4846 0.296875 17.8125C0.296875 18.1404 0.562706 18.4062 0.890625 18.4062C0.726665 18.4062 0.59375 18.2733 0.59375 18.1094C0.59375 17.9454 0.726665 17.8125 0.890625 17.8125C1.05458 17.8125 1.1875 17.9454 1.1875 18.1094C1.1875 18.2733 1.05458 18.4062 0.890625 18.4062C1.21854 18.4062 1.48438 18.1404 1.48438 17.8125C1.48438 17.4846 1.21854 17.2188 0.890625 17.2188Z" fill="currentColor"/>
<path d="M13.6563 7.125C13.9842 7.125 14.25 6.85917 14.25 6.53125C14.25 6.03937 13.8513 5.64062 13.3594 5.64062C13.0315 5.64062 12.7656 5.90646 12.7656 6.23438C12.7656 6.47517 12.909 6.68249 13.115 6.77565C13.2081 6.98166 13.4155 7.125 13.6563 7.125Z" fill="currentColor"/>
<path d="M13.0625 5.9375C12.7346 5.9375 12.4688 6.20333 12.4688 6.53125C12.4688 7.02313 12.8675 7.42188 13.3594 7.42188C13.8513 7.42188 14.25 7.02313 14.25 6.53125C14.25 6.20333 13.9842 5.9375 13.6562 5.9375C13.5481 5.9375 13.4467 5.96641 13.3594 6.01693C13.272 5.96641 13.1706 5.9375 13.0625 5.9375Z" fill="currentColor"/>
<path d="M13.9531 6.23438C13.9531 5.90646 13.6873 5.64062 13.3594 5.64062C12.8675 5.64062 12.4688 6.03937 12.4688 6.53125C12.4688 6.85917 12.7346 7.125 13.0625 7.125C13.3033 7.125 13.5106 6.98166 13.6038 6.77565C13.8098 6.68249 13.9531 6.47517 13.9531 6.23438Z" fill="currentColor"/>
<path d="M3.58431 4.95141C3.62481 5.22241 3.4746 5.48593 3.22078 5.58916C1.77463 6.17734 0.947658 7.70741 1.24786 9.23946C1.54807 10.7715 2.89135 11.8763 4.45295 11.8752H12.469C14.9295 11.877 17.0725 10.1968 17.6578 7.80696C18.2432 5.41711 17.1193 2.93674 14.9365 1.80124C12.7536 0.665741 10.0775 1.16928 8.45663 3.02046C8.23198 3.27703 7.83787 3.29208 7.59432 3.05338C6.91199 2.38466 5.89504 2.19061 5.01441 2.56109C4.13811 2.92975 3.56703 3.78578 3.56236 4.73556C3.56629 4.80781 3.57361 4.87984 3.58431 4.95141ZM4.55393 1.46651C5.68801 0.989402 6.97274 1.13618 7.9615 1.82163C9.96342 -0.0957504 12.9879 -0.550955 15.4845 0.74776C18.1529 2.13586 19.5268 5.16799 18.8113 8.08947C18.0957 11.0109 15.476 13.0649 12.4686 13.0627H4.45338C2.32408 13.0642 0.491978 11.5574 0.0825263 9.46781C-0.29854 7.52311 0.651985 5.58074 2.37558 4.6741C2.40427 3.27106 3.25599 2.01255 4.55393 1.46651Z" fill="currentColor"/>
</svg>
