<svg width="26" height="26" viewBox="0 0 26 26" fill="none" xmlns="http://www.w3.org/2000/svg">
<path d="M1 13C1 16.1826 2.26428 19.2348 4.51472 21.4853C6.76516 23.7357 9.8174 25 13 25C16.1826 25 19.2348 23.7357 21.4853 21.4853C23.7357 19.2348 25 16.1826 25 13C25 9.8174 23.7357 6.76516 21.4853 4.51472C19.2348 2.26428 16.1826 1 13 1C9.8174 1 6.76516 2.26428 4.51472 4.51472C2.26428 6.76516 1 9.8174 1 13V13Z" stroke="#26387C" stroke-width="1.5625" stroke-linecap="round" stroke-linejoin="round"/>
<path d="M11.2857 12.9999C11.2857 13.4546 11.4663 13.8906 11.7878 14.2121C12.1093 14.5336 12.5453 14.7142 13 14.7142C13.4547 14.7142 13.8907 14.5336 14.2122 14.2121C14.5337 13.8906 14.7143 13.4546 14.7143 12.9999C14.7143 12.5453 14.5337 12.1092 14.2122 11.7877C13.8907 11.4663 13.4547 11.2856 13 11.2856C12.5453 11.2856 12.1093 11.4663 11.7878 11.7877C11.4663 12.1092 11.2857 12.5453 11.2857 12.9999V12.9999Z" stroke="#26387C" stroke-width="1.5625" stroke-linecap="round" stroke-linejoin="round"/>
<path d="M13 11.2856V5.28564" stroke="#26387C" stroke-width="1.5625" stroke-linecap="round" stroke-linejoin="round"/>
<path d="M14.2126 14.2126L17.2857 17.2858" stroke="#26387C" stroke-width="1.5625" stroke-linecap="round" stroke-linejoin="round"/>
</svg>
