<svg width="100" height="100" viewBox="0 0 100 100" fill="none" xmlns="http://www.w3.org/2000/svg">
<path fill-rule="evenodd" clip-rule="evenodd" d="M0 50C0 77.6142 22.3858 100 50 100C77.6142 100 100 77.6142 100 50C100 22.3858 77.6142 0 50 0C22.3858 0 0 22.3858 0 50ZM6.25 50C6.25 25.8375 25.8375 6.25 50 6.25C74.1625 6.25 93.75 25.8375 93.75 50C93.75 74.1625 74.1625 93.75 50 93.75C25.8375 93.75 6.25 74.1625 6.25 50ZM27.4942 33.3538L27.6041 33.1983C28.4147 31.9763 29.7836 31.2416 31.25 31.2416C32.6392 31.2416 33.9409 31.901 34.7632 33.0094L34.8958 33.1983C35.8498 34.6365 37.7891 35.029 39.2274 34.075C40.6656 33.121 41.0582 31.1817 40.1041 29.7435C38.1356 26.7758 34.8112 24.9916 31.25 24.9916C27.6887 24.9916 24.3643 26.7758 22.3958 29.7435C21.4418 31.1817 21.8343 33.121 23.2726 34.075C24.6575 34.9937 26.5072 34.6637 27.4942 33.3538ZM31.25 39.0625C33.8388 39.0625 35.9375 41.1612 35.9375 43.75C35.9375 46.3385 33.8394 48.4369 31.251 48.4375L31.0354 48.4327C28.5462 48.3205 26.5625 46.2669 26.5625 43.75C26.5625 41.1612 28.6612 39.0625 31.25 39.0625ZM68.75 39.0625C71.3388 39.0625 73.4375 41.1612 73.4375 43.75C73.4375 46.3385 71.3394 48.4369 68.751 48.4375L68.5354 48.4327C66.0462 48.3205 64.0625 46.2669 64.0625 43.75C64.0625 41.1612 66.1612 39.0625 68.75 39.0625ZM65.1041 33.1983L64.9942 33.3538C64.0072 34.6637 62.1575 34.9937 60.7726 34.075C59.3343 33.121 58.9418 31.1817 59.8958 29.7435C61.8643 26.7758 65.1887 24.9916 68.75 24.9916C72.3112 24.9916 75.6356 26.7758 77.6041 29.7435C78.5582 31.1817 78.1656 33.121 76.7274 34.075C75.2891 35.029 73.3498 34.6365 72.3958 33.1983L72.2632 33.0094C71.4409 31.901 70.1392 31.2416 68.75 31.2416C67.2836 31.2416 65.9147 31.9763 65.1041 33.1983ZM49.9917 56.2327C61.872 56.2327 72.7253 62.9674 78.0001 73.6125C78.7664 75.159 78.1339 77.0338 76.5875 77.8001C75.041 78.5664 73.1662 77.934 72.3999 76.3875C68.1798 67.8708 59.4966 62.4827 49.9917 62.4827C40.4868 62.4827 31.8035 67.8708 27.5834 76.3875C26.8172 77.934 24.9423 78.5664 23.3959 77.8001C21.8494 77.0338 21.217 75.159 21.9832 73.6125C27.258 62.9674 38.1114 56.2327 49.9917 56.2327Z" fill="black"/>
</svg>
