<svg width="32" height="32" viewBox="0 0 32 32" fill="none" xmlns="http://www.w3.org/2000/svg">
<path fill-rule="evenodd" clip-rule="evenodd" d="M4.68629 27.3137C1.68571 24.3131 0 20.2435 0 16C0 11.7565 1.6857 7.6869 4.68629 4.68629C7.6869 1.6857 11.7565 0 16 0C20.2435 0 24.3131 1.68571 27.3137 4.68629C30.3143 7.6869 32 11.7565 32 16C32 20.2435 30.3143 24.3131 27.3137 27.3137C24.3131 30.3143 20.2435 32 16 32C11.7565 32 7.6869 30.3143 4.68629 27.3137ZM6.10051 6.1005C3.47499 8.72604 2 12.287 2 16C2 19.713 3.47499 23.274 6.1005 25.8995C8.72603 28.525 12.287 30 16 30C19.713 30 23.274 28.525 25.8995 25.8995C28.525 23.274 30 19.713 30 16C30 12.287 28.525 8.72603 25.8995 6.1005C23.274 3.47499 19.713 2 16 2C12.287 2 8.72604 3.47499 6.10051 6.1005ZM6.59237 18.2241C6.87658 18.0768 7.19195 18 7.51199 18H24.488C24.8081 18 25.1236 18.0769 25.4073 18.2239C25.6915 18.371 25.9362 18.5841 26.1209 18.8454C26.3056 19.1066 26.4249 19.4082 26.4689 19.7254C26.5128 20.0423 26.4801 20.3651 26.3737 20.6659C25.6166 22.8125 24.2123 24.6714 22.3543 25.9863C20.4963 27.3012 18.2762 28.0073 16 28.0073C13.7238 28.0073 11.5037 27.3012 9.64567 25.9863C7.78765 24.6714 6.38334 22.8125 5.62653 20.6667C5.5199 20.3651 5.48715 20.0423 5.5311 19.725C5.57512 19.4082 5.69442 19.1066 5.87907 18.8454C6.0638 18.5841 6.3085 18.371 6.59237 18.2241ZM7.51199 20L7.60013 20.2387C8.23704 21.8944 9.34991 23.3268 10.801 24.3538C12.3212 25.4296 14.1377 26.0073 16 26.0073C17.8623 26.0073 19.6788 25.4296 21.1989 24.3538C22.7192 23.2779 23.8682 21.757 24.4878 20H7.51199ZM25.6002 13.6669C25.3246 12.8868 24.8139 12.2114 24.1385 11.7336C23.4629 11.2559 22.6559 10.9993 21.8287 10.9993C21.0014 10.9993 20.1944 11.2559 19.5189 11.7335C18.8434 12.2114 18.3327 12.8868 18.0571 13.6669C17.8731 14.1876 18.1461 14.7589 18.6669 14.9429C19.1587 15.1166 19.6956 14.8828 19.9087 14.4176L19.9429 14.3331C20.0807 13.943 20.336 13.6053 20.6738 13.3664C21.0115 13.1276 21.4151 12.9993 21.8287 12.9993C22.2423 12.9993 22.6458 13.1276 22.9836 13.3665C23.2838 13.5788 23.5189 13.8692 23.6642 14.2051L23.7145 14.3331C23.8984 14.8539 24.4697 15.1269 24.9905 14.9429C25.5112 14.7589 25.7842 14.1876 25.6002 13.6669ZM12.4812 11.7336C13.1566 12.2114 13.6673 12.8868 13.9429 13.6669C14.1269 14.1876 13.8539 14.7589 13.3331 14.9429C12.8124 15.1269 12.2411 14.8539 12.0571 14.3331L12.0069 14.2051C11.8615 13.8692 11.6264 13.5788 11.3263 13.3665C10.9885 13.1276 10.5849 12.9993 10.1713 12.9993C9.75772 12.9993 9.35418 13.1276 9.01643 13.3664C8.67869 13.6053 8.42337 13.943 8.28553 14.3331L8.25136 14.4176C8.03823 14.8828 7.50133 15.1166 7.00952 14.9429C6.48878 14.7589 6.21579 14.1876 6.39978 13.6669C6.6754 12.8868 7.18606 12.2114 7.86159 11.7335C8.53709 11.2559 9.34406 10.9993 10.1713 10.9993C10.9986 10.9993 11.8056 11.2559 12.4812 11.7336Z" fill="#4F6300"/>
</svg>
