<svg width="100" height="100" viewBox="0 0 100 100" fill="none" xmlns="http://www.w3.org/2000/svg">
<path fill-rule="evenodd" clip-rule="evenodd" d="M14.6446 85.3553C5.26783 75.9784 0 63.2608 0 50C0 36.7392 5.26783 24.0216 14.6447 14.6446C24.0216 5.26783 36.7392 0 50 0C63.2608 0 75.9784 5.26783 85.3553 14.6447C94.7322 24.0215 100 36.7392 100 50C100 63.2608 94.7322 75.9785 85.3553 85.3553C75.9785 94.7322 63.2608 100 50 100C36.7392 100 24.0215 94.7322 14.6446 85.3553ZM19.0641 19.0641C10.8594 27.2689 6.25 38.3968 6.25 50C6.25 61.6032 10.8594 72.7311 19.0641 80.9359C27.2689 89.1406 38.3968 93.75 50 93.75C61.6032 93.75 72.7311 89.1406 80.9359 80.9359C89.1406 72.7311 93.75 61.6032 93.75 50C93.75 38.3968 89.1406 27.2689 80.9359 19.0641C72.7311 10.8594 61.6032 6.25 50 6.25C38.3968 6.25 27.2689 10.8593 19.0641 19.0641ZM20.6012 56.9502C21.4893 56.4901 22.4749 56.25 23.475 56.25H76.525C77.5254 56.25 78.5111 56.4902 79.3978 56.9497C80.2859 57.4093 81.0506 58.0754 81.6278 58.892C82.2049 59.7081 82.5777 60.6507 82.7154 61.642C82.8526 62.6322 82.7502 63.6409 82.4179 64.581C80.052 71.2891 75.6635 77.098 69.8572 81.2073C64.0509 85.3162 57.113 87.5228 50 87.5228C42.8869 87.5228 35.949 85.3162 30.1427 81.2072C24.3364 77.098 19.9479 71.2891 17.5829 64.5833C17.2497 63.6409 17.1474 62.6322 17.2847 61.6408C17.4223 60.6507 17.7951 59.7081 18.3721 58.892C18.9494 58.0754 19.714 57.4093 20.6012 56.9502ZM23.475 62.4999L23.7504 63.246C25.7408 68.4199 29.2185 72.8963 33.7532 76.1055C38.5037 79.4674 44.1802 81.2728 50 81.2728C55.8197 81.2728 61.4962 79.4674 66.2467 76.1056C70.9974 72.7435 74.588 67.9907 76.5245 62.4999H23.475ZM80.0007 42.709C79.1394 40.2713 77.5436 38.1607 75.4329 36.6676C73.3216 35.1745 70.7998 34.3728 68.2146 34.3728C65.6294 34.3728 63.1076 35.1745 60.9967 36.6673C58.8856 38.1605 57.2898 40.2711 56.4285 42.709C55.8535 44.3363 56.7066 46.1216 58.334 46.6965C59.8709 47.2395 61.5487 46.5087 62.2147 45.055L62.3215 44.791C62.7522 43.5719 63.5501 42.5166 64.6056 41.7701C65.661 41.0237 66.9221 40.6228 68.2146 40.6228C69.5071 40.6228 70.7682 41.0237 71.8239 41.7703C72.7618 42.4337 73.4965 43.3414 73.9507 44.391L74.1077 44.791C74.6826 46.4184 76.4679 47.2715 78.0952 46.6965C79.7225 46.1216 80.5756 44.3363 80.0007 42.709ZM39.0037 36.6676C41.1144 38.1607 42.7102 40.2713 43.5715 42.709C44.1464 44.3363 43.2933 46.1216 41.666 46.6965C40.0387 47.2715 38.2534 46.4184 37.6785 44.791L37.5215 44.391C37.0673 43.3414 36.3326 42.4337 35.3947 41.7703C34.339 41.0237 33.0779 40.6228 31.7854 40.6228C30.4929 40.6228 29.2318 41.0237 28.1763 41.7701C27.1209 42.5166 26.323 43.5719 25.8923 44.791L25.7855 45.055C25.1195 46.5087 23.4417 47.2395 21.9048 46.6965C20.2775 46.1216 19.4243 44.3363 19.9993 42.709C20.8606 40.2711 22.4564 38.1605 24.5675 36.6673C26.6784 35.1745 29.2002 34.3728 31.7854 34.3728C34.3706 34.3728 36.8924 35.1745 39.0037 36.6676Z" fill="currentColor"/>
</svg>
