<svg width="32" height="32" viewBox="0 0 32 32" fill="none" xmlns="http://www.w3.org/2000/svg">
<path fill-rule="evenodd" clip-rule="evenodd" d="M0 16C0 24.8366 7.16344 32 16 32C24.8366 32 32 24.8366 32 16C32 7.16344 24.8366 0 16 0C7.16344 0 0 7.16344 0 16ZM2 16C2 8.26801 8.26801 2 16 2C23.732 2 30 8.26801 30 16C30 23.732 23.732 30 16 30C8.26801 30 2 23.732 2 16ZM8.79813 10.6732L8.83332 10.6234C9.09271 10.2324 9.53075 9.99732 9.99999 9.99732C10.4445 9.99732 10.8611 10.2083 11.1242 10.563L11.1667 10.6234C11.4719 11.0837 12.0925 11.2093 12.5528 10.904C13.013 10.5987 13.1386 9.97814 12.8333 9.5179C12.2034 8.56824 11.1396 7.99732 9.99999 7.99732C8.8604 7.99732 7.79659 8.56824 7.16666 9.5179C6.86137 9.97814 6.98698 10.5987 7.44722 10.904C7.89041 11.198 8.48229 11.0924 8.79813 10.6732ZM10 12.5C10.8284 12.5 11.5 13.1716 11.5 14C11.5 14.8283 10.8286 15.4998 10.0003 15.5L9.93134 15.4985C9.13478 15.4626 8.5 14.8054 8.5 14C8.5 13.1716 9.17157 12.5 10 12.5ZM22 12.5C22.8284 12.5 23.5 13.1716 23.5 14C23.5 14.8283 22.8286 15.4998 22.0003 15.5L21.9313 15.4985C21.1348 15.4626 20.5 14.8054 20.5 14C20.5 13.1716 21.1716 12.5 22 12.5ZM20.8333 10.6234L20.7981 10.6732C20.4823 11.0924 19.8904 11.198 19.4472 10.904C18.987 10.5987 18.8614 9.97814 19.1667 9.5179C19.7966 8.56824 20.8604 7.99732 22 7.99732C23.1396 7.99732 24.2034 8.56824 24.8333 9.5179C25.1386 9.97814 25.013 10.5987 24.5528 10.904C24.0925 11.2093 23.4719 11.0837 23.1667 10.6234L23.1242 10.563C22.8611 10.2083 22.4445 9.99732 22 9.99732C21.5307 9.99732 21.0927 10.2324 20.8333 10.6234ZM15.9973 17.9945C19.799 17.9945 23.2721 20.1496 24.96 23.556C25.2052 24.0509 25.0029 24.6508 24.508 24.896C24.0131 25.1412 23.4132 24.9389 23.168 24.444C21.8175 21.7187 19.0389 19.9945 15.9973 19.9945C12.9558 19.9945 10.1771 21.7187 8.8267 24.444C8.58149 24.9389 7.98154 25.1412 7.48668 24.896C6.99182 24.6508 6.78943 24.0509 7.03464 23.556C8.72256 20.1496 12.1956 17.9945 15.9973 17.9945Z" fill="#840707"/>
</svg>
