<svg width="32" height="32" viewBox="0 0 32 32" fill="none" xmlns="http://www.w3.org/2000/svg">
<path d="M0 16C0 24.8366 7.16344 32 16 32C24.8366 32 32 24.8366 32 16C32 7.16344 24.8366 0 16 0C7.16344 0 0 7.16344 0 16ZM2 16C2 8.26801 8.26801 2 16 2C23.732 2 30 8.26801 30 16C30 23.732 23.732 30 16 30C8.26801 30 2 23.732 2 16Z" fill="currentColor"/>
<path d="M11.3456 24.5994C13.9491 22.2378 18.2792 22.4001 20.8392 24.5993C21.3174 24.8756 21.929 24.7118 22.2053 24.2336C22.4815 23.7553 22.3178 23.1437 21.8395 22.8675C18.5992 20.3201 13.4525 20.1835 10.2384 22.9337C9.77848 23.2395 9.65346 23.8602 9.95919 24.3201C10.2649 24.7801 10.8856 24.9051 11.3456 24.5994Z" fill="currentColor"/>
<path d="M19.96 14.6201C19.96 15.4485 20.6316 16.1201 21.46 16.1201C22.2884 16.1201 22.96 15.4485 22.96 14.6201C22.96 13.8147 22.3252 13.1575 21.5287 13.1217L21.4597 13.1201C20.6314 13.1203 19.96 13.7918 19.96 14.6201Z" fill="currentColor"/>
<path d="M8.95999 14.6201C8.95999 15.4485 9.63156 16.1201 10.46 16.1201C11.2884 16.1201 11.96 15.4485 11.96 14.6201C11.96 13.8147 11.3252 13.1575 10.5287 13.1217L10.4597 13.1201C9.63138 13.1203 8.95999 13.7918 8.95999 14.6201Z" fill="currentColor"/>
<path d="M8.27447 11.4474L12.7573 11.0552C13.17 11.0191 13.467 10.5617 13.4208 10.0335C13.3746 9.50533 13.0026 9.10643 12.59 9.14253L8.10713 9.53473C7.69449 9.57083 7.39745 10.0283 7.44365 10.5564C7.48986 11.0846 7.86183 11.4835 8.27447 11.4474Z" fill="currentColor"/>
<path d="M19.0176 10.938L23.5005 11.3302C23.9131 11.3663 24.2851 10.9674 24.3313 10.4392C24.3775 9.91107 24.0804 9.45363 23.6678 9.41753L19.1849 9.02533C18.7723 8.98923 18.4003 9.38813 18.3541 9.91631C18.3079 10.4445 18.6049 10.9019 19.0176 10.938Z" fill="currentColor"/>
</svg>
