<svg width="16" height="16" viewBox="0 0 16 16" fill="none" xmlns="http://www.w3.org/2000/svg">
<path fill-rule="evenodd" clip-rule="evenodd" d="M11.334 1.99984H14.0007C14.3688 1.99984 14.6673 2.29831 14.6673 2.6665V13.3332C14.6673 13.7014 14.3688 13.9998 14.0007 13.9998H2.00065C1.63246 13.9998 1.33398 13.7014 1.33398 13.3332V2.6665C1.33398 2.29831 1.63246 1.99984 2.00065 1.99984H4.66732V0.666504H6.00065V1.99984H10.0007V0.666504H11.334V1.99984ZM10.0007 3.33317H6.00065V4.6665H4.66732V3.33317H2.66732V5.99984H13.334V3.33317H11.334V4.6665H10.0007V3.33317ZM13.334 7.33317H2.66732V12.6665H13.334V7.33317Z" fill="currentColor"/>
</svg>
