<svg width="18" height="19" viewBox="0 0 18 19" fill="none" xmlns="http://www.w3.org/2000/svg">
<path d="M16.1538 0C17.1097 0 17.8846 0.797493 17.8846 1.78125V3.5625C17.8846 4.21834 17.368 4.75 16.7307 4.75V17.2188C16.7307 18.1927 15.9713 18.984 15.0286 18.9998L15 19H8.07689C7.12101 19 6.34612 18.2025 6.34612 17.2188C6.34612 16.8908 6.60442 16.625 6.92304 16.625C7.23598 16.625 7.49072 16.8814 7.49972 17.2012L7.49997 17.2188L7.50021 17.2363C7.50905 17.5503 7.75477 17.8032 8.05988 17.8122L8.07689 17.8125H15C15.3129 17.8125 15.5676 17.5561 15.5766 17.2363L15.5769 17.2188L15.5769 15.4375H10.3846C10.066 15.4375 9.80766 15.1717 9.80766 14.8438V8.90625C9.80766 8.57833 10.066 8.3125 10.3846 8.3125H15.5769L15.5769 4.75H7.49997V8.90625C7.49997 9.23417 7.24167 9.5 6.92304 9.5C6.61011 9.5 6.35537 9.24358 6.34637 8.92376L6.34612 8.90625V4.75C5.70887 4.75 5.19228 4.21834 5.19228 3.5625V1.78125C5.19228 0.797493 5.96717 0 6.92304 0H16.1538ZM6.92586 10.1757C7.73218 10.398 8.36198 11.0462 8.57804 11.8761C8.79409 12.7059 8.56356 13.5913 7.9731 14.199L3.98849 18.2959L3.96114 18.3236C3.04668 19.2347 1.58768 19.2254 0.684329 18.2957C-0.228143 17.3566 -0.228143 15.834 0.684527 14.8947L2.65495 12.8687C2.66145 12.8613 2.66817 12.854 2.6751 12.8469C2.68214 12.8397 2.68932 12.8326 2.69663 12.8258L4.66894 10.7981C5.25921 10.1906 6.11954 9.95334 6.92586 10.1757ZM3.08341 14.1068L1.50022 15.7346C1.03835 16.21 1.03835 16.9807 1.50022 17.456C1.96209 17.9313 2.71092 17.9313 3.17279 17.456L4.75596 15.8282L3.08341 14.1068ZM5.48464 11.638L3.89967 13.2675L5.57222 14.9888L7.15741 13.3591C7.45618 13.0516 7.57287 12.6034 7.46351 12.1834C7.35415 11.7634 7.03536 11.4353 6.62722 11.3227C6.21909 11.2102 5.78361 11.3303 5.48464 11.638ZM15.5769 9.5H10.9615V14.25H15.5769V9.5ZM16.1538 1.1875H6.92304C6.60442 1.1875 6.34612 1.45333 6.34612 1.78125V3.5625H16.7307V1.78125C16.7307 1.45333 16.4724 1.1875 16.1538 1.1875Z" fill="currentColor"/>
</svg>
