<svg width="100" height="100" viewBox="0 0 20 25" fill="none" xmlns="http://www.w3.org/2000/svg">
<path d="M13.75 15.011L10 18.761L6.25 15.011" stroke="currentColor" stroke-width="1.5" stroke-linecap="round" stroke-linejoin="round"/>
<path d="M10 18.761V9.76099" stroke="currentColor" stroke-width="1.5" stroke-linecap="round" stroke-linejoin="round"/>
<path d="M13.75 4.51099H17.5C17.8978 4.51099 18.2794 4.66902 18.5607 4.95033C18.842 5.23163 19 5.61316 19 6.01099V21.761C19 22.1588 18.842 22.5403 18.5607 22.8216C18.2794 23.103 17.8978 23.261 17.5 23.261H2.5C2.10218 23.261 1.72064 23.103 1.43934 22.8216C1.15804 22.5403 1 22.1588 1 21.761V6.01099C1 5.61316 1.15804 5.23163 1.43934 4.95033C1.72064 4.66902 2.10218 4.51099 2.5 4.51099H6.25C6.25 3.51642 6.64509 2.5626 7.34835 1.85934C8.05161 1.15607 9.00544 0.760986 10 0.760986C10.9946 0.760986 11.9484 1.15607 12.6517 1.85934C13.3549 2.5626 13.75 3.51642 13.75 4.51099V4.51099Z" stroke="currentColor" stroke-width="1.5" stroke-linecap="round" stroke-linejoin="round"/>
<path d="M10 3.76099C10.0742 3.76099 10.1467 3.78298 10.2083 3.82419C10.27 3.86539 10.3181 3.92396 10.3465 3.99248C10.3748 4.061 10.3823 4.1364 10.3678 4.20915C10.3533 4.28189 10.3176 4.34871 10.2652 4.40115C10.2127 4.4536 10.1459 4.48931 10.0732 4.50378C10.0004 4.51825 9.92502 4.51082 9.85649 4.48244C9.78797 4.45406 9.7294 4.40599 9.6882 4.34433C9.64699 4.28266 9.625 4.21015 9.625 4.13599C9.625 4.03653 9.66451 3.94115 9.73483 3.87082C9.80516 3.8005 9.90054 3.76099 10 3.76099" stroke="currentColor" stroke-width="1.5" stroke-linecap="round" stroke-linejoin="round" />
</svg>
