<svg width="16" height="21" viewBox="0 0 16 21" fill="none" xmlns="http://www.w3.org/2000/svg">
<path fill-rule="evenodd" clip-rule="evenodd" d="M8 5.00002C12.4183 5.00002 16 8.58175 16 13C16 17.4183 12.4183 21 8 21C3.58172 21 0 17.4183 0 13C0 8.58175 3.58172 5.00002 8 5.00002ZM8 7.00002C4.68629 7.00002 2 9.68632 2 13C2 16.3137 4.68629 19 8 19C11.3137 19 14 16.3137 14 13C14 9.68632 11.3137 7.00002 8 7.00002ZM8 8.50002L9.323 11.18L12.28 11.61L10.14 13.695L10.645 16.641L8 15.25L5.355 16.64L5.86 13.695L3.72 11.609L6.677 11.179L8 8.50002ZM14 2.34842e-05V3.00002L12.637 4.13802C11.5059 3.54461 10.2711 3.17486 9 3.04902V2.34842e-05H14ZM7 -0.000976562V3.04902C5.72935 3.17467 4.49482 3.54408 3.364 4.13702L2 3.00002V2.34842e-05L7 -0.000976562Z" fill="currentColor"/>
</svg>
