<svg width="23" height="21" viewBox="0 0 23 21" fill="none" xmlns="http://www.w3.org/2000/svg">
<path d="M21.4587 13.2616C21.3623 13.0464 21.2231 12.853 21.0497 12.6932C20.8763 12.5334 20.6722 12.4105 20.4499 12.3319C20.2276 12.2533 19.9916 12.2206 19.7562 12.236C19.5209 12.2513 19.2912 12.3142 19.0809 12.421L17.6894 13.1131L17.0477 11.6996C16.9513 11.4845 16.8121 11.2912 16.6388 11.1315C16.4655 10.9718 16.2615 10.8489 16.0393 10.7703C15.817 10.6917 15.5812 10.6591 15.3459 10.6743C15.1107 10.6895 14.881 10.7524 14.6708 10.859C14.2375 11.0781 13.9054 11.4558 13.7434 11.9135C13.5814 12.3712 13.602 12.8737 13.8009 13.3166L15.7259 17.5277C15.7552 17.5933 15.7976 17.6522 15.8504 17.7009C15.9032 17.7497 15.9653 17.7872 16.033 17.8111C16.1007 17.8351 16.1726 17.8451 16.2443 17.8406C16.316 17.836 16.386 17.8169 16.4501 17.7844L20.5943 15.7201C21.0265 15.4997 21.3573 15.1214 21.5183 14.6637C21.6792 14.206 21.6579 13.704 21.4587 13.2616V13.2616Z" stroke="currentColor" stroke-width="1.375" stroke-linecap="round" stroke-linejoin="round"/>
<path d="M8.96548 12.8703L2.43239 8.19619C1.8622 7.80613 1.42927 7.24648 1.19498 6.59658C0.960683 5.94668 0.936921 5.23952 1.12706 4.57536V4.57536C1.27051 4.07446 1.5309 3.61481 1.8868 3.23427C2.24269 2.85373 2.6839 2.56318 3.17409 2.38657C3.66428 2.20995 4.18941 2.15232 4.70623 2.21843C5.22305 2.28453 5.71677 2.47247 6.14673 2.76677L7.20639 3.49186L7.93056 2.43219C8.2248 2.002 8.61705 1.6479 9.075 1.39907C9.53295 1.15023 10.0435 1.01379 10.5645 1.00099C11.0855 0.988191 11.6021 1.09939 12.0718 1.32544C12.5414 1.55148 12.9506 1.88589 13.2656 2.30111V2.30111C13.6834 2.85184 13.9171 3.52019 13.9336 4.21129C13.95 4.90239 13.7484 5.58111 13.3572 6.15111L8.96548 12.8703Z" stroke="currentColor" stroke-width="1.375" stroke-linecap="round" stroke-linejoin="round"/>
<path d="M20.5943 7.87524C20.6855 7.87524 20.7729 7.91146 20.8374 7.97593C20.9018 8.04039 20.938 8.12783 20.938 8.21899" stroke="currentColor" stroke-width="1.375" stroke-linecap="round" stroke-linejoin="round"/>
<path d="M20.2505 8.21899C20.2505 8.12783 20.2868 8.04039 20.3512 7.97593C20.4157 7.91146 20.5031 7.87524 20.5943 7.87524" stroke="currentColor" stroke-width="1.375" stroke-linecap="round" stroke-linejoin="round"/>
<path d="M20.5943 8.56274C20.5031 8.56274 20.4157 8.52653 20.3512 8.46206C20.2868 8.3976 20.2505 8.31016 20.2505 8.21899" stroke="currentColor" stroke-width="1.375" stroke-linecap="round" stroke-linejoin="round"/>
<path d="M20.938 8.21899C20.938 8.31016 20.9018 8.3976 20.8374 8.46206C20.7729 8.52653 20.6855 8.56274 20.5943 8.56274" stroke="currentColor" stroke-width="1.375" stroke-linecap="round" stroke-linejoin="round"/>
<path d="M2.7193 15.4377C2.81047 15.4377 2.8979 15.474 2.96237 15.5384C3.02683 15.6029 3.06305 15.6903 3.06305 15.7815" stroke="currentColor" stroke-width="1.375" stroke-linecap="round" stroke-linejoin="round"/>
<path d="M2.37555 15.7815C2.37555 15.6903 2.41177 15.6029 2.47623 15.5384C2.5407 15.474 2.62813 15.4377 2.7193 15.4377" stroke="currentColor" stroke-width="1.375" stroke-linecap="round" stroke-linejoin="round"/>
<path d="M2.7193 16.1252C2.62813 16.1252 2.5407 16.089 2.47623 16.0246C2.41177 15.9601 2.37555 15.8727 2.37555 15.7815" stroke="currentColor" stroke-width="1.375" stroke-linecap="round" stroke-linejoin="round"/>
<path d="M3.06305 15.7815C3.06305 15.8727 3.02683 15.9601 2.96237 16.0246C2.8979 16.089 2.81047 16.1252 2.7193 16.1252" stroke="currentColor" stroke-width="1.375" stroke-linecap="round" stroke-linejoin="round"/>
<path d="M9.93805 17.5002V20.2502" stroke="currentColor" stroke-width="1.375" stroke-linecap="round" stroke-linejoin="round"/>
<path d="M11.313 18.8752H8.56305" stroke="currentColor" stroke-width="1.375" stroke-linecap="round" stroke-linejoin="round"/>
<path d="M18.188 1.00024V3.75024" stroke="currentColor" stroke-width="1.375" stroke-linecap="round" stroke-linejoin="round"/>
<path d="M19.563 2.37524H16.813" stroke="currentColor" stroke-width="1.375" stroke-linecap="round" stroke-linejoin="round"/>
</svg>
