<svg width="190" height="72" viewBox="0 0 190 72" fill="none" xmlns="http://www.w3.org/2000/svg">
<g opacity="0.35">
<path d="M36.0608 -0.000236511C41.7509 -0.000236511 47.3602 1.34314 52.4303 3.92009C57.5003 6.49704 61.8872 10.2344 65.2322 14.8267C68.5773 19.419 70.7856 24.7358 71.6766 30.3426C72.5677 35.9494 72.1162 41.687 70.359 47.0864L36.0608 35.9764L36.0608 -0.000236511Z" fill="#5DEE5A"/>
<path d="M70.2955 47.2798C67.2907 56.3382 60.802 63.8348 52.257 68.1203L36.0608 35.9764L70.2955 47.2798Z" fill="#ACF352"/>
<path d="M52.8507 67.8156C47.8866 70.4212 42.3818 71.8355 36.7737 71.9461C31.1656 72.0567 25.609 70.8606 20.5456 68.4529C15.4821 66.0452 11.0515 62.4922 7.60583 58.0764C4.16019 53.6607 1.79458 48.5038 0.697047 43.0159L36.0608 35.9764L52.8507 67.8156Z" fill="#B6F929"/>
<path d="M52.8507 67.8156C47.8866 70.4212 42.3818 71.8355 36.7737 71.9461C31.1656 72.0567 25.609 70.8606 20.5456 68.4529C15.4821 66.0452 11.0515 62.4922 7.60583 58.0764C4.16019 53.6607 1.79458 48.5038 0.697047 43.0159L36.0608 35.9764L52.8507 67.8156Z" fill="#F2F478"/>
<path d="M0.759546 43.3215C-0.492106 37.334 -0.193007 31.1269 1.62859 25.2868C3.45018 19.4466 6.73412 14.1662 11.1701 9.94445L36.0608 35.9764L0.759546 43.3215Z" fill="#B6F929"/>
<path d="M0.759546 43.3215C-0.492106 37.334 -0.193007 31.1269 1.62859 25.2868C3.45018 19.4466 6.73412 14.1662 11.1701 9.94445L36.0608 35.9764L0.759546 43.3215Z" fill="#FEAA5B"/>
<path d="M10.562 10.5371C17.3247 3.79016 26.4969 -0.00023363 36.0608 -0.000236511L36.0608 35.9764L10.562 10.5371Z" fill="#B6F929"/>
<path d="M10.562 10.5371C17.3247 3.79016 26.4969 -0.00023363 36.0608 -0.000236511L36.0608 35.9764L10.562 10.5371Z" fill="#FEB571"/>
<path d="M10.562 10.5371C17.3247 3.79016 26.4969 -0.00023363 36.0608 -0.000236511L36.0608 35.9764L10.562 10.5371Z" fill="#F16B6B"/>
</g>
<g opacity="0.35">
<rect x="85" y="12.5024" width="100.241" height="46.834" rx="10" fill="#F2F9FB"/>
<rect x="85.5" y="13.0024" width="99.2412" height="45.834" rx="9.5" stroke="#D4F0F2" stroke-opacity="0.7"/>
<path d="M91.8973 45.2687L105.993 54.8368L119.004 26.4554L135.121 36.3304L145.957 16.8894L160.184 36.3304L175.578 54.8368" stroke="#26387C" stroke-width="2"/>
<g opacity="0.2" filter="url(#filter0_d_3955_31676)">
<line x1="86.6428" y1="54.7266" x2="181.954" y2="54.7266" stroke="#26387C" stroke-dasharray="3 3"/>
</g>
<g opacity="0.2" filter="url(#filter1_d_3955_31676)">
<line x1="86.6428" y1="45.6895" x2="181.954" y2="45.6894" stroke="#26387C" stroke-dasharray="3 3"/>
</g>
<g opacity="0.2" filter="url(#filter2_d_3955_31676)">
<line x1="86.6428" y1="35.8286" x2="181.954" y2="35.8286" stroke="#26387C" stroke-dasharray="3 3"/>
</g>
<g opacity="0.2" filter="url(#filter3_d_3955_31676)">
<line x1="86.6428" y1="25.9702" x2="181.954" y2="25.9702" stroke="#26387C" stroke-dasharray="3 3"/>
</g>
<g opacity="0.2" filter="url(#filter4_d_3955_31676)">
<line x1="86.6428" y1="16.9307" x2="181.954" y2="16.9307" stroke="black" stroke-dasharray="3 3"/>
</g>
<circle cx="145.804" cy="17.4313" r="1.46495" fill="#5DEE5A" stroke="#26387C" stroke-width="2"/>
<circle cx="159.771" cy="36.3292" r="1.46495" fill="#F2F478" stroke="#26387C" stroke-width="2"/>
<circle cx="135.121" cy="36.3292" r="1.46495" fill="#F2F478" stroke="#26387C" stroke-width="2"/>
<circle cx="119.511" cy="26.4689" r="1.46495" fill="#ACF352" stroke="#26387C" stroke-width="2"/>
<circle cx="91.5716" cy="45.3668" r="1.46495" fill="#FEAA5B" stroke="#26387C" stroke-width="2"/>
<circle cx="106.365" cy="55.2276" r="1.46495" fill="#F16B6B" stroke="#26387C" stroke-width="2"/>
<circle cx="175.381" cy="54.5016" r="1.46495" fill="#F16B6B" stroke="#26387C" stroke-width="2"/>
</g>
<defs>
<filter id="filter0_d_3955_31676" x="86.6428" y="54.2266" width="103.311" height="9" filterUnits="userSpaceOnUse" color-interpolation-filters="sRGB">
<feFlood flood-opacity="0" result="BackgroundImageFix"/>
<feColorMatrix in="SourceAlpha" type="matrix" values="0 0 0 0 0 0 0 0 0 0 0 0 0 0 0 0 0 0 127 0" result="hardAlpha"/>
<feOffset dx="4" dy="4"/>
<feGaussianBlur stdDeviation="2"/>
<feComposite in2="hardAlpha" operator="out"/>
<feColorMatrix type="matrix" values="0 0 0 0 0 0 0 0 0 0 0 0 0 0 0 0 0 0 0.25 0"/>
<feBlend mode="normal" in2="BackgroundImageFix" result="effect1_dropShadow_3955_31676"/>
<feBlend mode="normal" in="SourceGraphic" in2="effect1_dropShadow_3955_31676" result="shape"/>
</filter>
<filter id="filter1_d_3955_31676" x="86.6428" y="45.1895" width="103.311" height="9" filterUnits="userSpaceOnUse" color-interpolation-filters="sRGB">
<feFlood flood-opacity="0" result="BackgroundImageFix"/>
<feColorMatrix in="SourceAlpha" type="matrix" values="0 0 0 0 0 0 0 0 0 0 0 0 0 0 0 0 0 0 127 0" result="hardAlpha"/>
<feOffset dx="4" dy="4"/>
<feGaussianBlur stdDeviation="2"/>
<feComposite in2="hardAlpha" operator="out"/>
<feColorMatrix type="matrix" values="0 0 0 0 0 0 0 0 0 0 0 0 0 0 0 0 0 0 0.25 0"/>
<feBlend mode="normal" in2="BackgroundImageFix" result="effect1_dropShadow_3955_31676"/>
<feBlend mode="normal" in="SourceGraphic" in2="effect1_dropShadow_3955_31676" result="shape"/>
</filter>
<filter id="filter2_d_3955_31676" x="86.6428" y="35.3286" width="103.311" height="9" filterUnits="userSpaceOnUse" color-interpolation-filters="sRGB">
<feFlood flood-opacity="0" result="BackgroundImageFix"/>
<feColorMatrix in="SourceAlpha" type="matrix" values="0 0 0 0 0 0 0 0 0 0 0 0 0 0 0 0 0 0 127 0" result="hardAlpha"/>
<feOffset dx="4" dy="4"/>
<feGaussianBlur stdDeviation="2"/>
<feComposite in2="hardAlpha" operator="out"/>
<feColorMatrix type="matrix" values="0 0 0 0 0 0 0 0 0 0 0 0 0 0 0 0 0 0 0.25 0"/>
<feBlend mode="normal" in2="BackgroundImageFix" result="effect1_dropShadow_3955_31676"/>
<feBlend mode="normal" in="SourceGraphic" in2="effect1_dropShadow_3955_31676" result="shape"/>
</filter>
<filter id="filter3_d_3955_31676" x="86.6428" y="25.4702" width="103.311" height="9" filterUnits="userSpaceOnUse" color-interpolation-filters="sRGB">
<feFlood flood-opacity="0" result="BackgroundImageFix"/>
<feColorMatrix in="SourceAlpha" type="matrix" values="0 0 0 0 0 0 0 0 0 0 0 0 0 0 0 0 0 0 127 0" result="hardAlpha"/>
<feOffset dx="4" dy="4"/>
<feGaussianBlur stdDeviation="2"/>
<feComposite in2="hardAlpha" operator="out"/>
<feColorMatrix type="matrix" values="0 0 0 0 0 0 0 0 0 0 0 0 0 0 0 0 0 0 0.25 0"/>
<feBlend mode="normal" in2="BackgroundImageFix" result="effect1_dropShadow_3955_31676"/>
<feBlend mode="normal" in="SourceGraphic" in2="effect1_dropShadow_3955_31676" result="shape"/>
</filter>
<filter id="filter4_d_3955_31676" x="86.6428" y="16.4307" width="103.311" height="9" filterUnits="userSpaceOnUse" color-interpolation-filters="sRGB">
<feFlood flood-opacity="0" result="BackgroundImageFix"/>
<feColorMatrix in="SourceAlpha" type="matrix" values="0 0 0 0 0 0 0 0 0 0 0 0 0 0 0 0 0 0 127 0" result="hardAlpha"/>
<feOffset dx="4" dy="4"/>
<feGaussianBlur stdDeviation="2"/>
<feComposite in2="hardAlpha" operator="out"/>
<feColorMatrix type="matrix" values="0 0 0 0 0 0 0 0 0 0 0 0 0 0 0 0 0 0 0.25 0"/>
<feBlend mode="normal" in2="BackgroundImageFix" result="effect1_dropShadow_3955_31676"/>
<feBlend mode="normal" in="SourceGraphic" in2="effect1_dropShadow_3955_31676" result="shape"/>
</filter>
</defs>
</svg>
