<svg width="22" height="23" viewBox="0 0 22 23" fill="none" xmlns="http://www.w3.org/2000/svg">
<path d="M8.29028 22.0619V17.0653H4.07689C1.82888 17.0653 0 15.0839 0 12.649V4.41678C0 1.98193 1.82888 0 4.07689 0H17.9224C20.1709 0 22 1.98175 22 4.41678V12.6481C22 15.0833 20.1709 17.0649 17.9224 17.0649H13.2877L8.29028 22.0619ZM17.9224 1.23534H4.07689C2.50995 1.23534 1.23534 2.66234 1.23534 4.41656V12.6479C1.23534 14.4022 2.51017 15.8293 4.07689 15.8293H9.52562V19.0793L12.776 15.8293H17.9225C19.4899 15.8293 20.7647 14.402 20.7647 12.6479V4.41656C20.7647 2.66247 19.4898 1.23534 17.9225 1.23534H17.9224Z" fill="currentColor"/>
<path d="M11.0312 13.8772C10.8642 13.8772 10.6969 13.8209 10.5595 13.7078C10.0987 13.3277 9.75384 13.0755 9.42003 12.832C9.05363 12.5642 8.70741 12.3113 8.2788 11.9389C8.17608 11.8496 8.0713 11.7599 7.96548 11.6692C7.3066 11.1039 6.5597 10.4633 6.0132 9.70003C5.33178 8.74903 4.82974 7.13647 5.24438 5.67705C5.65282 4.23784 6.80664 3.32046 8.33048 3.22291C8.34375 3.22223 8.35684 3.22136 8.37029 3.22136L8.41527 3.22119C9.70765 3.22119 10.5094 3.80524 11.01 4.41621C11.4782 3.84023 12.2073 3.30978 13.419 3.22344C13.4344 3.22241 13.4493 3.22172 13.4647 3.22155H13.5042C14.7161 3.22155 15.5059 3.76236 15.9548 4.21595C16.7536 5.0232 17.059 6.21323 16.8374 7.65761C16.6344 8.9886 15.9843 9.78636 15.3911 10.4297C14.5627 11.2928 13.656 11.9916 12.8556 12.6086C12.3626 12.9888 11.8966 13.3478 11.5331 13.682C11.3914 13.8117 11.2115 13.8772 11.0312 13.8772L11.0312 13.8772ZM8.40511 4.70352C7.2127 4.78883 6.80667 5.60227 6.67051 6.08189C6.39253 7.06095 6.75979 8.19636 7.21856 8.83644C7.66112 9.45411 8.30672 10.008 8.93128 10.5436C9.0395 10.6365 9.1467 10.7284 9.252 10.8199C9.63305 11.1511 9.93982 11.3754 10.2948 11.6346C10.5098 11.7917 10.7431 11.962 11.0133 12.1719C11.3056 11.931 11.6224 11.687 11.9505 11.4341C12.7095 10.8488 13.57 10.1857 14.3114 9.41342C14.8972 8.77819 15.2442 8.26923 15.3718 7.43321C15.4749 6.76158 15.4766 5.83993 14.9012 5.25826C14.5365 4.89014 14.0669 4.70333 13.5042 4.70333H13.5014C12.4205 4.78829 12.0649 5.36821 11.6818 6.17669C11.5586 6.43693 11.306 6.60186 11.0077 6.60048C10.7195 6.59876 10.4588 6.43055 10.3386 6.16859C9.92278 5.26379 9.45643 4.70317 8.41548 4.70317L8.40511 4.70352Z" fill="currentColor"/>
</svg>
