<svg width="25" height="25" viewBox="0 0 25 25" fill="none" xmlns="http://www.w3.org/2000/svg">
<path d="M13.0009 1.95996C6.9094 1.95996 1.96094 6.90842 1.96094 13C1.96094 19.0915 6.9094 24.04 13.0009 24.04C19.0925 24.04 24.0409 19.0915 24.0409 13C24.0409 6.90842 19.0925 1.95996 13.0009 1.95996ZM13.0009 2.91996C18.5737 2.91996 23.0809 7.42725 23.0809 13C23.0809 18.5727 18.5737 23.08 13.0009 23.08C7.42822 23.08 2.92094 18.5727 2.92094 13C2.92094 7.42725 7.42822 2.91996 13.0009 2.91996ZM13.0009 6.27996C12.619 6.27996 12.2528 6.43167 11.9827 6.70173C11.7127 6.97178 11.5609 7.33805 11.5609 7.71996C11.5609 8.10187 11.7127 8.46814 11.9827 8.73819C12.2528 9.00825 12.619 9.15996 13.0009 9.15996C13.3828 9.15996 13.7491 9.00825 14.0192 8.73819C14.2892 8.46814 14.4409 8.10187 14.4409 7.71996C14.4409 7.33805 14.2892 6.97178 14.0192 6.70173C13.7491 6.43167 13.3828 6.27996 13.0009 6.27996ZM11.0809 11.08V12.04H11.5609H12.0409V18.28H11.5609H11.0809V19.24H11.5609H12.0409H13.9609H14.4409H14.9209V18.28H14.4409H13.9609V11.08H13.4809H11.5609H11.0809Z" fill="#DADADA" fill-opacity="0.38"/>
<path d="M12.0009 0.959961C5.9094 0.959961 0.960938 5.90842 0.960938 12C0.960938 18.0915 5.9094 23.04 12.0009 23.04C18.0925 23.04 23.0409 18.0915 23.0409 12C23.0409 5.90842 18.0925 0.959961 12.0009 0.959961ZM12.0009 1.91996C17.5737 1.91996 22.0809 6.42725 22.0809 12C22.0809 17.5727 17.5737 22.08 12.0009 22.08C6.42822 22.08 1.92094 17.5727 1.92094 12C1.92094 6.42725 6.42822 1.91996 12.0009 1.91996ZM12.0009 5.27996C11.619 5.27996 11.2528 5.43167 10.9827 5.70173C10.7127 5.97178 10.5609 6.33805 10.5609 6.71996C10.5609 7.10187 10.7127 7.46814 10.9827 7.73819C11.2528 8.00825 11.619 8.15996 12.0009 8.15996C12.3828 8.15996 12.7491 8.00825 13.0192 7.73819C13.2892 7.46814 13.4409 7.10187 13.4409 6.71996C13.4409 6.33805 13.2892 5.97178 13.0192 5.70173C12.7491 5.43167 12.3828 5.27996 12.0009 5.27996ZM10.0809 10.08V11.04H10.5609H11.0409V17.28H10.5609H10.0809V18.24H10.5609H11.0409H12.9609H13.4409H13.9209V17.28H13.4409H12.9609V10.08H12.4809H10.5609H10.0809Z" fill="#1FC6D5"/>
</svg>
