<svg width="22" height="22" viewBox="0 0 22 22" fill="none" xmlns="http://www.w3.org/2000/svg">
<path fill-rule="evenodd" clip-rule="evenodd" d="M15.3935 6.90699C16.3965 6.48699 17.4724 6.26866 18.5598 6.26447L18.5625 6.95196L19.25 6.9493C19.2542 8.03667 19.0442 9.11423 18.6319 10.1204C18.2197 11.1267 17.6133 12.0418 16.8474 12.8137C16.0815 13.5855 15.171 14.199 14.168 14.619C13.165 15.039 12.0891 15.2573 11.0017 15.2615C10.622 15.263 10.3131 14.9564 10.3116 14.5767C10.3074 13.4893 10.5174 12.4117 10.9296 11.4055C11.3419 10.3993 11.9482 9.48415 12.7142 8.71229C13.4801 7.94043 14.3905 7.32698 15.3935 6.90699ZM17.8395 7.68049C17.1821 7.75254 16.537 7.91883 15.9246 8.17527C15.0882 8.52553 14.3289 9.0371 13.6902 9.68079C13.0515 10.3245 12.5458 11.0877 12.202 11.9268C11.9503 12.5412 11.789 13.1875 11.722 13.8455C12.3795 13.7734 13.0245 13.6071 13.6369 13.3507C14.4734 13.0004 15.2326 12.4889 15.8714 11.8452C16.5101 11.2015 17.0158 10.4383 17.3596 9.59917C17.6113 8.98479 17.7726 8.33852 17.8395 7.68049Z" fill="#1FC6D5"/>
<path fill-rule="evenodd" clip-rule="evenodd" d="M11.0091 0C11.1927 -6.55644e-07 11.3687 0.0734363 11.4978 0.203947C12.7016 1.42055 13.5402 2.9502 13.9186 4.61932C14.297 6.28845 14.2 8.03022 13.6385 9.64699C13.514 10.0057 13.1222 10.1955 12.7636 10.0709C12.4049 9.94636 12.2151 9.55462 12.3396 9.19594C12.8168 7.82197 12.8992 6.34178 12.5777 4.92332C12.3101 3.74305 11.7717 2.64485 11.0091 1.71369C10.243 2.64914 9.70323 3.75312 9.43694 4.93943C9.11717 6.36404 9.2047 7.84988 9.68951 9.2271C9.81559 9.58525 9.62746 9.97779 9.26931 10.1039C8.91116 10.23 8.51862 10.0418 8.39254 9.68367C7.82204 8.06307 7.71905 6.31465 8.09533 4.63828C8.47162 2.96192 9.31199 1.42525 10.5204 0.203951C10.6495 0.0734389 10.8255 6.55653e-07 11.0091 0Z" fill="#1FC6D5"/>
<path fill-rule="evenodd" clip-rule="evenodd" d="M3.43755 6.95196L2.75006 6.9493C2.74156 9.14501 3.60552 11.2542 5.15194 12.813C6.69835 14.3718 8.80058 15.2525 10.9963 15.2615C11.1787 15.2622 11.3538 15.1905 11.4833 15.0621C11.6128 14.9336 11.6859 14.759 11.6866 14.5767C11.6951 12.381 10.8311 10.2718 9.28473 8.71299C7.73831 7.1542 5.63608 6.27346 3.44037 6.26447L3.43755 6.95196ZM8.30859 9.68138C7.19053 8.55437 5.72408 7.85238 4.16047 7.68066C4.31973 9.24558 5.01001 10.7176 6.12807 11.8446C7.24613 12.9716 8.71259 13.6736 10.2762 13.8453C10.1169 12.2804 9.42665 10.8084 8.30859 9.68138Z" fill="#1FC6D5"/>
<path fill-rule="evenodd" clip-rule="evenodd" d="M11 13.8865C11.3797 13.8865 11.6875 14.1943 11.6875 14.574V17.8749C11.6875 18.2546 11.3797 18.5624 11 18.5624C10.6203 18.5624 10.3125 18.2546 10.3125 17.8749V14.574C10.3125 14.1943 10.6203 13.8865 11 13.8865Z" fill="#1FC6D5"/>
<path fill-rule="evenodd" clip-rule="evenodd" d="M11 18.5624C7.43001 18.5624 3.95628 19.72 1.09995 21.8616C0.796157 22.0893 0.365242 22.0277 0.137474 21.7239C-0.090294 21.4201 -0.0286644 20.9892 0.275128 20.7614C3.36943 18.4415 7.13258 17.1874 11 17.1874C14.8674 17.1874 18.6306 18.4415 21.7249 20.7614C22.0287 20.9892 22.0903 21.4201 21.8625 21.7239C21.6348 22.0277 21.2038 22.0893 20.9001 21.8616C18.0437 19.72 14.57 18.5624 11 18.5624Z" fill="#1FC6D5"/>
</svg>
