<svg width="50" height="50" viewBox="0 0 50 50" fill="none" xmlns="http://www.w3.org/2000/svg">
<rect width="50" height="50" rx="25" fill="#1FC6D5"/>
<path d="M26.2131 17.6923C26.2131 17.0223 25.67 16.4792 25 16.4792C24.33 16.4792 23.7868 17.0223 23.7868 17.6923V34.3077C23.7868 34.9777 24.33 35.5208 25 35.5208C25.67 35.5208 26.2131 34.9777 26.2131 34.3077V17.6923Z" fill="white" stroke="white" stroke-width="1.04167" stroke-linecap="round" stroke-linejoin="round"/>
<path d="M16.6923 24.7869C16.0223 24.7869 15.4792 25.33 15.4792 26C15.4792 26.67 16.0223 27.2132 16.6923 27.2132H33.3077C33.9777 27.2132 34.5208 26.67 34.5208 26C34.5208 25.33 33.9777 24.7869 33.3077 24.7869H16.6923Z" fill="white" stroke="white" stroke-width="1.04167" stroke-linecap="round" stroke-linejoin="round"/>
</svg>
