<svg width="22" height="22" viewBox="0 0 22 22" fill="none" xmlns="http://www.w3.org/2000/svg">
<path fill-rule="evenodd" clip-rule="evenodd" d="M0 0.6875C0 0.307804 0.307804 0 0.6875 0H21.3125C21.6922 0 22 0.307804 22 0.6875V17.1875C22 17.5672 21.6922 17.875 21.3125 17.875H0.6875C0.307804 17.875 0 17.5672 0 17.1875V0.6875ZM1.375 1.375V16.5H20.625V1.375H1.375Z" fill="#3D6874"/>
<path fill-rule="evenodd" clip-rule="evenodd" d="M11 19.9375C10.7265 19.9375 10.4642 20.0461 10.2708 20.2395C10.0774 20.4329 9.96875 20.6952 9.96875 20.9688C9.96875 21.1727 10.0292 21.3721 10.1425 21.5417C10.2559 21.7113 10.4169 21.8435 10.6054 21.9215C10.7938 21.9996 11.0011 22.02 11.2012 21.9802C11.4012 21.9404 11.585 21.8422 11.7292 21.698C11.8734 21.5537 11.9716 21.37 12.0114 21.1699C12.0512 20.9699 12.0308 20.7625 11.9528 20.5741C11.8747 20.3857 11.7425 20.2246 11.5729 20.1113C11.4033 19.998 11.204 19.9375 11 19.9375Z" fill="#3D6874"/>
<path fill-rule="evenodd" clip-rule="evenodd" d="M6.41675 19.9375C6.14325 19.9375 5.88094 20.0461 5.68754 20.2395C5.49415 20.4329 5.3855 20.6952 5.3855 20.9688C5.3855 21.1727 5.44598 21.3721 5.5593 21.5417C5.67261 21.7113 5.83367 21.8435 6.02211 21.9215C6.21054 21.9996 6.41789 22.02 6.61794 21.9802C6.81797 21.9404 7.00173 21.8422 7.14595 21.698C7.29018 21.5537 7.38839 21.37 7.42818 21.1699C7.46797 20.9699 7.44755 20.7625 7.3695 20.5741C7.29145 20.3857 7.15927 20.2246 6.98968 20.1113C6.82009 19.998 6.62071 19.9375 6.41675 19.9375Z" fill="#3D6874"/>
<path fill-rule="evenodd" clip-rule="evenodd" d="M15.5833 19.9375C15.3097 19.9375 15.0474 20.0461 14.854 20.2395C14.6606 20.4329 14.552 20.6952 14.552 20.9688C14.552 21.1727 14.6125 21.3721 14.7258 21.5417C14.8391 21.7113 15.0002 21.8435 15.1886 21.9215C15.377 21.9996 15.5844 22.02 15.7844 21.9802C15.9845 21.9404 16.1682 21.8422 16.3125 21.698C16.4567 21.5537 16.5549 21.37 16.5947 21.1699C16.6345 20.9699 16.6141 20.7625 16.536 20.5741C16.458 20.3857 16.3258 20.2246 16.1562 20.1113C15.9866 19.998 15.7872 19.9375 15.5833 19.9375Z" fill="#3D6874"/>
<path fill-rule="evenodd" clip-rule="evenodd" d="M5.6826 6.35627C5.96909 6.60546 5.99934 7.03971 5.75015 7.3262L4.34867 8.93751L5.75015 10.5488C5.99934 10.8353 5.96909 11.2696 5.6826 11.5187C5.39611 11.7679 4.96186 11.7377 4.71268 11.4512L2.91876 9.3887C2.69375 9.12999 2.69375 8.74503 2.91876 8.48632L4.71268 6.42382C4.96186 6.13733 5.39611 6.10709 5.6826 6.35627Z" fill="#3D6874"/>
<path fill-rule="evenodd" clip-rule="evenodd" d="M16.3174 6.35627C16.6039 6.10709 17.0381 6.13733 17.2873 6.42382L19.0812 8.48632C19.3062 8.74503 19.3062 9.12999 19.0812 9.3887L17.2873 11.4512C17.0381 11.7377 16.6039 11.7679 16.3174 11.5187C16.0309 11.2696 16.0006 10.8353 16.2498 10.5488L17.6513 8.93751L16.2498 7.3262C16.0006 7.03971 16.0309 6.60546 16.3174 6.35627Z" fill="#3D6874"/>
</svg>
