<svg width="22" height="22" viewBox="0 0 22 22" fill="none" xmlns="http://www.w3.org/2000/svg">
<path fill-rule="evenodd" clip-rule="evenodd" d="M5.5 8.9375C5.5 8.5578 5.8078 8.25 6.1875 8.25H15.8125C16.1922 8.25 16.5 8.5578 16.5 8.9375V15.8125C16.5 16.1922 16.1922 16.5 15.8125 16.5H6.1875C5.8078 16.5 5.5 16.1922 5.5 15.8125V8.9375ZM6.875 9.625V15.125H15.125V9.625H6.875Z" fill="#134449"/>
<path fill-rule="evenodd" clip-rule="evenodd" d="M10.9991 11.3438C11.1346 11.3435 11.2687 11.37 11.3939 11.4217C11.5194 11.4734 11.6335 11.5495 11.7295 11.6455C11.8255 11.7415 11.9016 11.8556 11.9533 11.9811C12.005 12.1063 12.0315 12.2405 12.0312 12.3759C12.0311 12.5796 11.9706 12.7786 11.8575 12.9479C11.7441 13.1175 11.5831 13.2497 11.3946 13.3278C11.2062 13.4058 10.9989 13.4262 10.7988 13.3864C10.5988 13.3466 10.415 13.2484 10.2708 13.1042C10.1266 12.96 10.0284 12.7762 9.98857 12.5762C9.94878 12.3761 9.9692 12.1688 10.0472 11.9804C10.1253 11.7919 10.2575 11.6309 10.4271 11.5175C10.5964 11.4044 10.7955 11.3439 10.9991 11.3438ZM11 12.0313V11.3438C10.9997 11.3438 10.9994 11.3438 10.9991 11.3438C10.9988 11.3438 10.9985 11.3438 10.9982 11.3438L11 12.0313ZM11.3438 12.375H12.0313C12.0313 12.3753 12.0312 12.3756 12.0312 12.3759C12.0312 12.3762 12.0312 12.3765 12.0312 12.3768L11.3438 12.375ZM11.0009 12.7188C11.0006 12.7188 11.0003 12.7188 11 12.7188L11.0009 12.7188ZM11 12.7188C10.9774 12.7187 10.955 12.7164 10.933 12.712C10.9113 12.7076 10.89 12.7012 10.8694 12.6927C10.8275 12.6754 10.7893 12.6499 10.7572 12.6178C10.7251 12.5857 10.6996 12.5475 10.6823 12.5056C10.6738 12.485 10.6674 12.4637 10.663 12.442C10.6586 12.42 10.6563 12.3976 10.6563 12.375C10.6563 12.3744 10.6562 12.3738 10.6563 12.3732C10.6563 12.3738 10.6563 12.3744 10.6563 12.375L10.6563 12.3732H10.6563" fill="#134449"/>
<path fill-rule="evenodd" clip-rule="evenodd" d="M11 4.125C10.2707 4.125 9.57118 4.41473 9.05546 4.93046C8.53973 5.44618 8.25 6.14565 8.25 6.875V8.9375C8.25 9.3172 7.9422 9.625 7.5625 9.625C7.1828 9.625 6.875 9.3172 6.875 8.9375V6.875C6.875 5.78098 7.3096 4.73177 8.08318 3.95818C8.85677 3.1846 9.90598 2.75 11 2.75C12.094 2.75 13.1432 3.1846 13.9168 3.95818C14.6904 4.73177 15.125 5.78098 15.125 6.875V8.9375C15.125 9.3172 14.8172 9.625 14.4375 9.625C14.0578 9.625 13.75 9.3172 13.75 8.9375V6.875C13.75 6.14565 13.4603 5.44618 12.9445 4.93046C12.4288 4.41473 11.7293 4.125 11 4.125Z" fill="#134449"/>
<path fill-rule="evenodd" clip-rule="evenodd" d="M0 0.6875C0 0.307804 0.307804 0 0.6875 0H21.3125C21.6922 0 22 0.307804 22 0.6875V9.625C22 12.9997 20.8939 15.6855 18.9529 17.7364C17.0254 19.7729 14.3179 21.1389 11.1772 21.9768C11.0611 22.0077 10.9389 22.0077 10.8228 21.9768C7.68542 21.1398 4.9779 19.775 3.0497 17.739C1.10785 15.6885 0 13.0022 0 9.625V0.6875ZM1.375 1.375V9.625C1.375 12.6737 2.36357 15.0148 4.04805 16.7935C5.71243 18.5509 8.09785 19.8021 11 20.6002C13.9052 19.8012 16.2906 18.549 17.9542 16.7912C19.6379 15.0122 20.625 12.6715 20.625 9.625V1.375H1.375Z" fill="#134449"/>
</svg>
