<svg width="24" height="26" viewBox="0 0 24 26" fill="none" xmlns="http://www.w3.org/2000/svg">
<path d="M3 13.75C3 14.9319 3.23279 16.1022 3.68508 17.1942C4.13738 18.2861 4.80031 19.2782 5.63604 20.114C6.47177 20.9497 7.46392 21.6126 8.55585 22.0649C9.64778 22.5172 10.8181 22.75 12 22.75C13.1819 22.75 14.3522 22.5172 15.4442 22.0649C16.5361 21.6126 17.5282 20.9497 18.364 20.114C19.1997 19.2782 19.8626 18.2861 20.3149 17.1942C20.7672 16.1022 21 14.9319 21 13.75C21 12.5681 20.7672 11.3978 20.3149 10.3058C19.8626 9.21392 19.1997 8.22177 18.364 7.38604C17.5282 6.55031 16.5361 5.88738 15.4442 5.43508C14.3522 4.98279 13.1819 4.75 12 4.75C10.8181 4.75 9.64778 4.98279 8.55585 5.43508C7.46392 5.88738 6.47177 6.55031 5.63604 7.38604C4.80031 8.22177 4.13738 9.21392 3.68508 10.3058C3.23279 11.3978 3 12.5681 3 13.75V13.75Z" stroke="#3D6874" stroke-width="1.5625" stroke-linecap="round" stroke-linejoin="round"/>
<path d="M6 24.25L7.386 21.479" stroke="#3D6874" stroke-width="1.5625" stroke-linecap="round" stroke-linejoin="round"/>
<path d="M12 13.75H8.60901" stroke="#3D6874" stroke-width="1.5625" stroke-linecap="round" stroke-linejoin="round"/>
<path d="M12 8.5V13.75" stroke="#3D6874" stroke-width="1.5625" stroke-linecap="round" stroke-linejoin="round"/>
<path d="M1.5 4.75L5.25 1.75" stroke="#3D6874" stroke-width="1.5625" stroke-linecap="round" stroke-linejoin="round"/>
<path d="M18 24.25L16.614 21.478" stroke="#3D6874" stroke-width="1.5625" stroke-linecap="round" stroke-linejoin="round"/>
<path d="M22.5 4.75L18.75 1.75" stroke="#3D6874" stroke-width="1.5625" stroke-linecap="round" stroke-linejoin="round"/>
</svg>
