<svg width="75" height="84" viewBox="0 0 75 84" fill="none" xmlns="http://www.w3.org/2000/svg">
<path d="M62.5 0C55.6458 0 50 5.64579 50 12.5C50 13.2956 50.0908 14.0713 50.236 14.8275L20.5078 32.1696C18.3272 30.3244 15.5503 29.1667 12.5 29.1667C5.64579 29.1667 0 34.8125 0 41.6667C0 48.5209 5.64579 54.1667 12.5 54.1667C15.5503 54.1667 18.3272 53.0089 20.5078 51.1637L50.236 68.4977C50.0898 69.2563 50 70.0349 50 70.8333C50 77.6875 55.6458 83.3333 62.5 83.3333C69.3542 83.3333 75 77.6875 75 70.8333C75 63.9791 69.3542 58.3333 62.5 58.3333C59.4478 58.3333 56.6733 59.4972 54.4922 61.3444L24.764 43.9941C24.9092 43.238 25 42.4623 25 41.6667C25 40.871 24.9092 40.0953 24.764 39.3392L54.4922 21.9971C56.6727 23.8423 59.4497 25 62.5 25C69.3542 25 75 19.3542 75 12.5C75 5.64579 69.3542 0 62.5 0ZM62.5 8.33333C64.8505 8.33333 66.6667 10.1495 66.6667 12.5C66.6667 14.8505 64.8505 16.6667 62.5 16.6667C60.1495 16.6667 58.3333 14.8505 58.3333 12.5C58.3333 10.1495 60.1495 8.33333 62.5 8.33333ZM12.5 37.5C14.8505 37.5 16.6667 39.3161 16.6667 41.6667C16.6667 44.0172 14.8505 45.8333 12.5 45.8333C10.1495 45.8333 8.33333 44.0172 8.33333 41.6667C8.33333 39.3161 10.1495 37.5 12.5 37.5ZM62.5 66.6667C64.8505 66.6667 66.6667 68.4828 66.6667 70.8333C66.6667 73.1839 64.8505 75 62.5 75C60.1495 75 58.3333 73.1839 58.3333 70.8333C58.3333 68.4828 60.1495 66.6667 62.5 66.6667Z" fill="currentColor"/>
</svg>
