<svg width="26" height="26" viewBox="0 0 26 26" fill="none" xmlns="http://www.w3.org/2000/svg">
<path d="M10.75 7.76099H24.25V24.261H10.75V7.76099Z" stroke="#134449" stroke-width="1.5625" stroke-linecap="round" stroke-linejoin="round"/>
<path d="M10.75 21.261H7.75C7.35218 21.261 6.97064 21.103 6.68934 20.8216C6.40804 20.5403 6.25 20.1588 6.25 19.761V6.26099C6.25 5.86316 6.40804 5.48163 6.68934 5.20033C6.97064 4.91902 7.35218 4.76099 7.75 4.76099H18.25C18.6478 4.76099 19.0294 4.91902 19.3107 5.20033C19.592 5.48163 19.75 5.86316 19.75 6.26099V7.76099" stroke="#134449" stroke-width="1.5625" stroke-linecap="round" stroke-linejoin="round"/>
<path d="M6.25 18.261H3.25C2.85218 18.261 2.47064 18.103 2.18934 17.8216C1.90804 17.5403 1.75 17.1588 1.75 16.761V3.26099C1.75 2.86316 1.90804 2.48163 2.18934 2.20033C2.47064 1.91902 2.85218 1.76099 3.25 1.76099H13.75C14.1478 1.76099 14.5294 1.91902 14.8107 2.20033C15.092 2.48163 15.25 2.86316 15.25 3.26099V4.76099" stroke="#134449" stroke-width="1.5625" stroke-linecap="round" stroke-linejoin="round"/>
<path d="M18.25 12.261H21.25" stroke="#134449" stroke-width="1.5625" stroke-linecap="round" stroke-linejoin="round"/>
<path d="M13.75 11.511L14.5 12.261L16 10.761" stroke="#134449" stroke-width="1.5625" stroke-linecap="round" stroke-linejoin="round"/>
<path d="M18.25 16.761H21.25" stroke="#134449" stroke-width="1.5625" stroke-linecap="round" stroke-linejoin="round"/>
<path d="M13.75 16.011L14.5 16.761L16 15.261" stroke="#134449" stroke-width="1.5625" stroke-linecap="round" stroke-linejoin="round"/>
<path d="M18.25 21.261H21.25" stroke="#134449" stroke-width="1.5625" stroke-linecap="round" stroke-linejoin="round"/>
<path d="M13.75 20.511L14.5 21.261L16 19.761" stroke="#134449" stroke-width="1.5625" stroke-linecap="round" stroke-linejoin="round"/>
</svg>
