<svg width="375" height="60" viewBox="0 0 375 60" fill="none" xmlns="http://www.w3.org/2000/svg">
<g filter="url(#filter0_d)">
<mask id="path-1-inside-1" fill="white">
<path fill-rule="evenodd" clip-rule="evenodd" d="M157.995 6.69071C157.029 3.03944 154.019 0 150.242 0H0C-0.552285 0 -1 0.447714 -1 0.999999V59C-1 59.5523 -0.552282 60 2.26498e-06 60H375C375.552 60 376 59.5523 376 59V1C376 0.447715 375.552 0 375 0H223.758C219.981 0 216.971 3.03944 216.005 6.69071C212.609 19.533 200.91 29 187 29C173.09 29 161.391 19.533 157.995 6.69071Z"/>
</mask>
<path fill-rule="evenodd" clip-rule="evenodd" d="M157.995 6.69071C157.029 3.03944 154.019 0 150.242 0H0C-0.552285 0 -1 0.447714 -1 0.999999V59C-1 59.5523 -0.552282 60 2.26498e-06 60H375C375.552 60 376 59.5523 376 59V1C376 0.447715 375.552 0 375 0H223.758C219.981 0 216.971 3.03944 216.005 6.69071C212.609 19.533 200.91 29 187 29C173.09 29 161.391 19.533 157.995 6.69071Z" fill="white"/>
<path d="M216.005 6.69071L215.038 6.43505L216.005 6.69071ZM157.995 6.69071L158.962 6.43505L157.995 6.69071ZM0 1H150.242V-1H0V1ZM0 0.999999V1V-1C-1.10457 -1 -2 -0.104571 -2 0.999999H0ZM0 59V0.999999H-2V59H0ZM2.26498e-06 59H0H-2C-2 60.1046 -1.10456 61 2.26498e-06 61V59ZM375 59H2.26498e-06V61H375V59ZM375 59V61C376.105 61 377 60.1046 377 59H375ZM375 1V59H377V1H375ZM375 1V1H377C377 -0.104575 376.105 -1 375 -1V1ZM223.758 1H375V-1H223.758V1ZM215.038 6.43505C211.755 18.8496 200.445 28 187 28V30C201.375 30 213.463 20.2165 216.972 6.94638L215.038 6.43505ZM187 28C173.555 28 162.245 18.8496 158.962 6.43505L157.028 6.94638C160.537 20.2165 172.625 30 187 30V28ZM223.758 -1C219.402 -1 216.084 2.47979 215.038 6.43505L216.972 6.94638C217.857 3.59908 220.561 1 223.758 1V-1ZM150.242 1C153.439 1 156.143 3.59908 157.028 6.94638L158.962 6.43505C157.916 2.4798 154.598 -1 150.242 -1V1Z" fill="#D5F6F9" mask="url(#path-1-inside-1)"/>
</g>
<defs>
<filter id="filter0_d" x="-1" y="0" width="377" height="60" filterUnits="userSpaceOnUse" color-interpolation-filters="sRGB">
<feFlood flood-opacity="0" result="BackgroundImageFix"/>
<feColorMatrix in="SourceAlpha" type="matrix" values="0 0 0 0 0 0 0 0 0 0 0 0 0 0 0 0 0 0 127 0"/>
<feOffset/>
<feColorMatrix type="matrix" values="0 0 0 0 0 0 0 0 0 0 0 0 0 0 0 0 0 0 0.25 0"/>
<feBlend mode="normal" in2="BackgroundImageFix" result="effect1_dropShadow"/>
<feBlend mode="normal" in="SourceGraphic" in2="effect1_dropShadow" result="shape"/>
</filter>
</defs>
</svg>
