<svg width="20" height="20" viewBox="0 0 20 20" fill="none" xmlns="http://www.w3.org/2000/svg">
<path d="M16.6664 3.33301H10.6797C10.773 3.59467 10.833 3.87217 10.833 4.16634C10.833 4.46051 10.773 4.73801 10.6797 4.99967H16.6664C17.1264 4.99967 17.4997 4.62634 17.4997 4.16634C17.4997 3.70634 17.1264 3.33301 16.6664 3.33301Z" fill="black"/>
<path d="M3.33333 4.99967H5.98667C5.89333 4.73801 5.83333 4.46051 5.83333 4.16634C5.83333 3.87217 5.89333 3.59467 5.98667 3.33301H3.33333C2.87333 3.33301 2.5 3.70634 2.5 4.16634C2.5 4.62634 2.87333 4.99967 3.33333 4.99967Z" fill="black"/>
<path opacity="0.35" d="M8.33398 6.66699C9.7147 6.66699 10.834 5.5477 10.834 4.16699C10.834 2.78628 9.7147 1.66699 8.33398 1.66699C6.95327 1.66699 5.83398 2.78628 5.83398 4.16699C5.83398 5.5477 6.95327 6.66699 8.33398 6.66699Z" fill="black"/>
<path d="M16.6657 9.16699H14.8457C14.939 9.42866 14.999 9.70616 14.999 10.0003C14.999 10.2945 14.939 10.572 14.8457 10.8337H16.6657C17.1257 10.8337 17.499 10.4603 17.499 10.0003C17.499 9.54033 17.1257 9.16699 16.6657 9.16699Z" fill="black"/>
<path d="M3.33333 10.8337H10.1533C10.06 10.572 10 10.2945 10 10.0003C10 9.70616 10.06 9.42866 10.1533 9.16699H3.33333C2.87333 9.16699 2.5 9.54033 2.5 10.0003C2.5 10.4603 2.87333 10.8337 3.33333 10.8337Z" fill="black"/>
<path opacity="0.35" d="M12.5 12.5C13.8807 12.5 15 11.3807 15 10C15 8.61929 13.8807 7.5 12.5 7.5C11.1193 7.5 10 8.61929 10 10C10 11.3807 11.1193 12.5 12.5 12.5Z" fill="black"/>
<path d="M16.6664 15H10.6797C10.773 15.2617 10.833 15.5392 10.833 15.8333C10.833 16.1275 10.773 16.405 10.6797 16.6667H16.6664C17.1264 16.6667 17.4997 16.2933 17.4997 15.8333C17.4997 15.3733 17.1264 15 16.6664 15Z" fill="black"/>
<path d="M3.33333 16.6667H5.98667C5.89333 16.405 5.83333 16.1275 5.83333 15.8333C5.83333 15.5392 5.89333 15.2617 5.98667 15H3.33333C2.87333 15 2.5 15.3733 2.5 15.8333C2.5 16.2933 2.87333 16.6667 3.33333 16.6667Z" fill="black"/>
<path opacity="0.35" d="M8.33398 18.333C9.7147 18.333 10.834 17.2137 10.834 15.833C10.834 14.4523 9.7147 13.333 8.33398 13.333C6.95327 13.333 5.83398 14.4523 5.83398 15.833C5.83398 17.2137 6.95327 18.333 8.33398 18.333Z" fill="black"/>
</svg>
