<svg width="26" height="26" viewBox="0 0 26 26" fill="none" xmlns="http://www.w3.org/2000/svg">
<path d="M1 13C1 16.1826 2.26428 19.2348 4.51472 21.4853C6.76516 23.7357 9.8174 25 13 25C16.1826 25 19.2348 23.7357 21.4853 21.4853C23.7357 19.2348 25 16.1826 25 13C25 9.8174 23.7357 6.76516 21.4853 4.51472C19.2348 2.26428 16.1826 1 13 1C9.8174 1 6.76516 2.26428 4.51472 4.51472C2.26428 6.76516 1 9.8174 1 13V13Z" stroke="#26387C" stroke-width="1.5625" stroke-linecap="round" stroke-linejoin="round"/>
<path d="M10.6 13.8L8.2 11.4L10.6 9" stroke="#26387C" stroke-width="1.5625" stroke-linecap="round" stroke-linejoin="round"/>
<path d="M8.2 11.3999H13C13.8487 11.3999 14.6626 11.737 15.2627 12.3372C15.8629 12.9373 16.2 13.7512 16.2 14.5999V17.7999" stroke="#26387C" stroke-width="1.5625" stroke-linecap="round" stroke-linejoin="round"/>
</svg>
